<svg width="1280" height="703" viewBox="0 0 1280 703" fill="none" xmlns="http://www.w3.org/2000/svg">
<path d="M40 -17H-35V58H40V-17Z" stroke="#111111" stroke-width="2"/>
<path d="M115 -17H40V58H115V-17Z" stroke="#111111" stroke-width="2"/>
<path d="M190 -17H115V58H190V-17Z" stroke="#111111" stroke-width="2"/>
<path d="M265 -17H190V58H265V-17Z" stroke="#111111" stroke-width="2"/>
<path d="M340 -17H265V58H340V-17Z" stroke="#111111" stroke-width="2"/>
<path d="M415 -17H340V58H415V-17Z" stroke="#111111" stroke-width="2"/>
<path d="M490 -17H415V58H490V-17Z" stroke="#111111" stroke-width="2"/>
<path d="M565 -17H490V58H565V-17Z" stroke="#111111" stroke-width="2"/>
<path d="M640 -17H565V58H640V-17Z" stroke="#111111" stroke-width="2"/>
<path d="M715 -17H640V58H715V-17Z" stroke="#111111" stroke-width="2"/>
<path d="M790 -17H715V58H790V-17Z" stroke="#111111" stroke-width="2"/>
<path d="M865 -17H790V58H865V-17Z" stroke="#111111" stroke-width="2"/>
<path d="M940 -17H865V58H940V-17Z" stroke="#111111" stroke-width="2"/>
<path d="M1015 -17H940V58H1015V-17Z" stroke="#111111" stroke-width="2"/>
<path d="M1090 -17H1015V58H1090V-17Z" stroke="#111111" stroke-width="2"/>
<path d="M1165 -17H1090V58H1165V-17Z" stroke="#111111" stroke-width="2"/>
<path d="M1240 -17H1165V58H1240V-17Z" stroke="#111111" stroke-width="2"/>
<path d="M1315 -17H1240V58H1315V-17Z" stroke="#111111" stroke-width="2"/>
<path d="M40 58H-35V133H40V58Z" stroke="#111111" stroke-width="2"/>
<path d="M115 58H40V133H115V58Z" stroke="#111111" stroke-width="2"/>
<path d="M190 58H115V133H190V58Z" stroke="#111111" stroke-width="2"/>
<path d="M265 58H190V133H265V58Z" stroke="#111111" stroke-width="2"/>
<path d="M340 58H265V133H340V58Z" stroke="#111111" stroke-width="2"/>
<path d="M415 58H340V133H415V58Z" stroke="#111111" stroke-width="2"/>
<path d="M490 58H415V133H490V58Z" stroke="#111111" stroke-width="2"/>
<path d="M565 58H490V133H565V58Z" stroke="#111111" stroke-width="2"/>
<path d="M640 58H565V133H640V58Z" stroke="#111111" stroke-width="2"/>
<path d="M715 58H640V133H715V58Z" stroke="#111111" stroke-width="2"/>
<path d="M790 58H715V133H790V58Z" stroke="#111111" stroke-width="2"/>
<path d="M865 58H790V133H865V58Z" stroke="#111111" stroke-width="2"/>
<path d="M940 58H865V133H940V58Z" stroke="#111111" stroke-width="2"/>
<path d="M1015 58H940V133H1015V58Z" stroke="#111111" stroke-width="2"/>
<path d="M1090 58H1015V133H1090V58Z" stroke="#111111" stroke-width="2"/>
<path d="M1165 58H1090V133H1165V58Z" stroke="#111111" stroke-width="2"/>
<path d="M1240 58H1165V133H1240V58Z" stroke="#111111" stroke-width="2"/>
<path d="M1315 58H1240V133H1315V58Z" stroke="#111111" stroke-width="2"/>
<path d="M40 133H-35V208H40V133Z" stroke="#111111" stroke-width="2"/>
<path d="M115 133H40V208H115V133Z" stroke="#111111" stroke-width="2"/>
<path d="M190 133H115V208H190V133Z" stroke="#111111" stroke-width="2"/>
<path d="M265 133H190V208H265V133Z" stroke="#111111" stroke-width="2"/>
<path d="M340 133H265V208H340V133Z" stroke="#111111" stroke-width="2"/>
<path d="M415 133H340V208H415V133Z" stroke="#111111" stroke-width="2"/>
<path d="M490 133H415V208H490V133Z" stroke="#111111" stroke-width="2"/>
<path d="M565 133H490V208H565V133Z" stroke="#111111" stroke-width="2"/>
<path d="M640 133H565V208H640V133Z" stroke="#111111" stroke-width="2"/>
<path d="M715 133H640V208H715V133Z" stroke="#111111" stroke-width="2"/>
<path d="M790 133H715V208H790V133Z" stroke="#111111" stroke-width="2"/>
<path d="M865 133H790V208H865V133Z" stroke="#111111" stroke-width="2"/>
<path d="M940 133H865V208H940V133Z" stroke="#111111" stroke-width="2"/>
<path d="M1015 133H940V208H1015V133Z" stroke="#111111" stroke-width="2"/>
<path d="M1090 133H1015V208H1090V133Z" stroke="#111111" stroke-width="2"/>
<path d="M1165 133H1090V208H1165V133Z" stroke="#111111" stroke-width="2"/>
<path d="M1240 133H1165V208H1240V133Z" stroke="#111111" stroke-width="2"/>
<path d="M1315 133H1240V208H1315V133Z" stroke="#111111" stroke-width="2"/>
<path d="M40 208H-35V283H40V208Z" stroke="#111111" stroke-width="2"/>
<path d="M115 208H40V283H115V208Z" stroke="#111111" stroke-width="2"/>
<path d="M190 208H115V283H190V208Z" stroke="#111111" stroke-width="2"/>
<path d="M265 208H190V283H265V208Z" stroke="#111111" stroke-width="2"/>
<path d="M340 208H265V283H340V208Z" stroke="#111111" stroke-width="2"/>
<path d="M415 208H340V283H415V208Z" stroke="#111111" stroke-width="2"/>
<path d="M490 208H415V283H490V208Z" stroke="#111111" stroke-width="2"/>
<path d="M565 208H490V283H565V208Z" stroke="#111111" stroke-width="2"/>
<path d="M640 208H565V283H640V208Z" stroke="#111111" stroke-width="2"/>
<path d="M715 208H640V283H715V208Z" stroke="#111111" stroke-width="2"/>
<path d="M790 208H715V283H790V208Z" stroke="#111111" stroke-width="2"/>
<path d="M865 208H790V283H865V208Z" stroke="#111111" stroke-width="2"/>
<path d="M940 208H865V283H940V208Z" stroke="#111111" stroke-width="2"/>
<path d="M1015 208H940V283H1015V208Z" stroke="#111111" stroke-width="2"/>
<path d="M1090 208H1015V283H1090V208Z" stroke="#111111" stroke-width="2"/>
<path d="M1165 208H1090V283H1165V208Z" stroke="#111111" stroke-width="2"/>
<path d="M1240 208H1165V283H1240V208Z" stroke="#111111" stroke-width="2"/>
<path d="M1315 208H1240V283H1315V208Z" stroke="#111111" stroke-width="2"/>
<path d="M40 283H-35V358H40V283Z" stroke="#111111" stroke-width="2"/>
<path d="M115 283H40V358H115V283Z" stroke="#111111" stroke-width="2"/>
<path d="M190 283H115V358H190V283Z" stroke="#111111" stroke-width="2"/>
<path d="M265 283H190V358H265V283Z" stroke="#111111" stroke-width="2"/>
<path d="M340 283H265V358H340V283Z" stroke="#111111" stroke-width="2"/>
<path d="M415 283H340V358H415V283Z" stroke="#111111" stroke-width="2"/>
<path d="M490 283H415V358H490V283Z" stroke="#111111" stroke-width="2"/>
<path d="M565 283H490V358H565V283Z" stroke="#111111" stroke-width="2"/>
<path d="M640 283H565V358H640V283Z" stroke="#111111" stroke-width="2"/>
<path d="M715 283H640V358H715V283Z" stroke="#111111" stroke-width="2"/>
<path d="M790 283H715V358H790V283Z" stroke="#111111" stroke-width="2"/>
<path d="M865 283H790V358H865V283Z" stroke="#111111" stroke-width="2"/>
<path d="M940 283H865V358H940V283Z" stroke="#111111" stroke-width="2"/>
<path d="M1015 283H940V358H1015V283Z" stroke="#111111" stroke-width="2"/>
<path d="M1090 283H1015V358H1090V283Z" stroke="#111111" stroke-width="2"/>
<path d="M1165 283H1090V358H1165V283Z" stroke="#111111" stroke-width="2"/>
<path d="M1240 283H1165V358H1240V283Z" stroke="#111111" stroke-width="2"/>
<path d="M1315 283H1240V358H1315V283Z" stroke="#111111" stroke-width="2"/>
<path d="M40 358H-35V433H40V358Z" stroke="#111111" stroke-width="2"/>
<path d="M115 358H40V433H115V358Z" stroke="#111111" stroke-width="2"/>
<path d="M190 358H115V433H190V358Z" stroke="#111111" stroke-width="2"/>
<path d="M265 358H190V433H265V358Z" stroke="#111111" stroke-width="2"/>
<path d="M340 358H265V433H340V358Z" stroke="#111111" stroke-width="2"/>
<path d="M415 358H340V433H415V358Z" stroke="#111111" stroke-width="2"/>
<path d="M490 358H415V433H490V358Z" stroke="#111111" stroke-width="2"/>
<path d="M565 358H490V433H565V358Z" stroke="#111111" stroke-width="2"/>
<path d="M640 358H565V433H640V358Z" stroke="#111111" stroke-width="2"/>
<path d="M715 358H640V433H715V358Z" stroke="#111111" stroke-width="2"/>
<path d="M790 358H715V433H790V358Z" stroke="#111111" stroke-width="2"/>
<path d="M865 358H790V433H865V358Z" stroke="#111111" stroke-width="2"/>
<path d="M940 358H865V433H940V358Z" stroke="#111111" stroke-width="2"/>
<path d="M1015 358H940V433H1015V358Z" stroke="#111111" stroke-width="2"/>
<path d="M1090 358H1015V433H1090V358Z" stroke="#111111" stroke-width="2"/>
<path d="M1165 358H1090V433H1165V358Z" stroke="#111111" stroke-width="2"/>
<path d="M1240 358H1165V433H1240V358Z" stroke="#111111" stroke-width="2"/>
<path d="M1315 358H1240V433H1315V358Z" stroke="#111111" stroke-width="2"/>
<path d="M40 433H-35V508H40V433Z" stroke="#111111" stroke-width="2"/>
<path d="M115 433H40V508H115V433Z" stroke="#111111" stroke-width="2"/>
<path d="M190 433H115V508H190V433Z" stroke="#111111" stroke-width="2"/>
<path d="M265 433H190V508H265V433Z" stroke="#111111" stroke-width="2"/>
<path d="M340 433H265V508H340V433Z" stroke="#111111" stroke-width="2"/>
<path d="M415 433H340V508H415V433Z" stroke="#111111" stroke-width="2"/>
<path d="M490 433H415V508H490V433Z" stroke="#111111" stroke-width="2"/>
<path d="M565 433H490V508H565V433Z" stroke="#111111" stroke-width="2"/>
<path d="M640 433H565V508H640V433Z" stroke="#111111" stroke-width="2"/>
<path d="M715 433H640V508H715V433Z" stroke="#111111" stroke-width="2"/>
<path d="M790 433H715V508H790V433Z" stroke="#111111" stroke-width="2"/>
<path d="M865 433H790V508H865V433Z" stroke="#111111" stroke-width="2"/>
<path d="M940 433H865V508H940V433Z" stroke="#111111" stroke-width="2"/>
<path d="M1015 433H940V508H1015V433Z" stroke="#111111" stroke-width="2"/>
<path d="M1090 433H1015V508H1090V433Z" stroke="#111111" stroke-width="2"/>
<path d="M1165 433H1090V508H1165V433Z" stroke="#111111" stroke-width="2"/>
<path d="M1240 433H1165V508H1240V433Z" stroke="#111111" stroke-width="2"/>
<path d="M1315 433H1240V508H1315V433Z" stroke="#111111" stroke-width="2"/>
<path d="M40 508H-35V583H40V508Z" stroke="#111111" stroke-width="2"/>
<path d="M115 508H40V583H115V508Z" stroke="#111111" stroke-width="2"/>
<path d="M190 508H115V583H190V508Z" stroke="#111111" stroke-width="2"/>
<path d="M265 508H190V583H265V508Z" stroke="#111111" stroke-width="2"/>
<path d="M340 508H265V583H340V508Z" stroke="#111111" stroke-width="2"/>
<path d="M415 508H340V583H415V508Z" stroke="#111111" stroke-width="2"/>
<path d="M490 508H415V583H490V508Z" stroke="#111111" stroke-width="2"/>
<path d="M565 508H490V583H565V508Z" stroke="#111111" stroke-width="2"/>
<path d="M640 508H565V583H640V508Z" stroke="#111111" stroke-width="2"/>
<path d="M715 508H640V583H715V508Z" stroke="#111111" stroke-width="2"/>
<path d="M790 508H715V583H790V508Z" stroke="#111111" stroke-width="2"/>
<path d="M865 508H790V583H865V508Z" stroke="#111111" stroke-width="2"/>
<path d="M940 508H865V583H940V508Z" stroke="#111111" stroke-width="2"/>
<path d="M1015 508H940V583H1015V508Z" stroke="#111111" stroke-width="2"/>
<path d="M1090 508H1015V583H1090V508Z" stroke="#111111" stroke-width="2"/>
<path d="M1165 508H1090V583H1165V508Z" stroke="#111111" stroke-width="2"/>
<path d="M1240 508H1165V583H1240V508Z" stroke="#111111" stroke-width="2"/>
<path d="M1315 508H1240V583H1315V508Z" stroke="#111111" stroke-width="2"/>
<path d="M40 583H-35V658H40V583Z" stroke="#111111" stroke-width="2"/>
<path d="M115 583H40V658H115V583Z" stroke="#111111" stroke-width="2"/>
<path d="M190 583H115V658H190V583Z" stroke="#111111" stroke-width="2"/>
<path d="M265 583H190V658H265V583Z" stroke="#111111" stroke-width="2"/>
<path d="M340 583H265V658H340V583Z" stroke="#111111" stroke-width="2"/>
<path d="M415 583H340V658H415V583Z" stroke="#111111" stroke-width="2"/>
<path d="M490 583H415V658H490V583Z" stroke="#111111" stroke-width="2"/>
<path d="M565 583H490V658H565V583Z" stroke="#111111" stroke-width="2"/>
<path d="M640 583H565V658H640V583Z" stroke="#111111" stroke-width="2"/>
<path d="M715 583H640V658H715V583Z" stroke="#111111" stroke-width="2"/>
<path d="M790 583H715V658H790V583Z" stroke="#111111" stroke-width="2"/>
<path d="M865 583H790V658H865V583Z" stroke="#111111" stroke-width="2"/>
<path d="M940 583H865V658H940V583Z" stroke="#111111" stroke-width="2"/>
<path d="M1015 583H940V658H1015V583Z" stroke="#111111" stroke-width="2"/>
<path d="M1090 583H1015V658H1090V583Z" stroke="#111111" stroke-width="2"/>
<path d="M1165 583H1090V658H1165V583Z" stroke="#111111" stroke-width="2"/>
<path d="M1240 583H1165V658H1240V583Z" stroke="#111111" stroke-width="2"/>
<path d="M1315 583H1240V658H1315V583Z" stroke="#111111" stroke-width="2"/>
<path d="M40 658H-35V733H40V658Z" stroke="#111111" stroke-width="2"/>
<path d="M115 658H40V733H115V658Z" stroke="#111111" stroke-width="2"/>
<path d="M190 658H115V733H190V658Z" stroke="#111111" stroke-width="2"/>
<path d="M265 658H190V733H265V658Z" stroke="#111111" stroke-width="2"/>
<path d="M340 658H265V733H340V658Z" stroke="#111111" stroke-width="2"/>
<path d="M415 658H340V733H415V658Z" stroke="#111111" stroke-width="2"/>
<path d="M490 658H415V733H490V658Z" stroke="#111111" stroke-width="2"/>
<path d="M565 658H490V733H565V658Z" stroke="#111111" stroke-width="2"/>
<path d="M640 658H565V733H640V658Z" stroke="#111111" stroke-width="2"/>
<path d="M715 658H640V733H715V658Z" stroke="#111111" stroke-width="2"/>
<path d="M790 658H715V733H790V658Z" stroke="#111111" stroke-width="2"/>
<path d="M865 658H790V733H865V658Z" stroke="#111111" stroke-width="2"/>
<path d="M940 658H865V733H940V658Z" stroke="#111111" stroke-width="2"/>
<path d="M1015 658H940V733H1015V658Z" stroke="#111111" stroke-width="2"/>
<path d="M1090 658H1015V733H1090V658Z" stroke="#111111" stroke-width="2"/>
<path d="M1240 658H1165V733H1240V658Z" stroke="#111111" stroke-width="2"/>
<path d="M1315 658H1240V733H1315V658Z" stroke="#111111" stroke-width="2"/>
</svg>
