<svg width="12" height="11" viewBox="0 0 12 11" fill="none" xmlns="http://www.w3.org/2000/svg">
<g clip-path="url(#clip0_37_472)">
<path d="M2.052 1.20312H3.427H2.052ZM8.2395 1.20312H9.95825H8.2395ZM1.70825 1.54688H4.1145H1.70825ZM7.552 1.54688H10.302H7.552ZM1.3645 1.89062H4.802H1.3645ZM6.8645 1.89062H10.6458H6.8645ZM1.02075 2.23438H10.6458H1.02075ZM1.02075 2.57812H10.9895H1.02075ZM0.677002 2.92188H10.9895H0.677002ZM0.677002 3.26562H10.9895H0.677002ZM0.677002 3.60938H10.9895H0.677002ZM0.333252 3.95312H11.3333H0.333252ZM0.333252 4.29688H11.3333H0.333252ZM0.333252 4.64062H3.08325H0.333252ZM4.45825 4.64062H7.20825H4.45825ZM8.58325 4.64062H11.3333H8.58325ZM0.333252 4.98438H2.7395H0.333252ZM4.802 4.98438H6.8645H4.802ZM8.927 4.98438H11.3333H8.927ZM0.333252 5.32812H2.39575H0.333252ZM5.14575 5.32812H6.52075H5.14575ZM9.27075 5.32812H11.3333H9.27075ZM0.333252 5.67188H2.39575H0.333252ZM5.14575 5.67188H6.52075H5.14575ZM9.27075 5.67188H11.3333H9.27075ZM0.333252 6.01562H2.39575H0.333252ZM5.14575 6.01562H6.52075H5.14575ZM9.27075 6.01562H11.3333H9.27075ZM0.333252 6.35938H2.39575H0.333252ZM5.14575 6.35938H6.52075H5.14575ZM9.27075 6.35938H11.3333H9.27075ZM0.333252 6.70312H2.7395H0.333252ZM4.802 6.70312H6.8645H4.802ZM8.927 6.70312H11.3333H8.927ZM0.333252 7.04688H3.08325H0.333252ZM4.45825 7.04688H7.20825H4.45825ZM8.58325 7.04688H11.3333H8.58325ZM0.333252 7.39062H11.3333H0.333252ZM0.333252 7.73438H11.3333H0.333252ZM0.333252 8.07812H11.3333H0.333252ZM0.333252 8.42188H1.3645H0.333252ZM1.70825 8.42188H9.95825H1.70825ZM10.302 8.42188H11.3333H10.302ZM0.333252 8.76562H1.70825H0.333252ZM2.39575 8.76562H9.27075H2.39575ZM9.95825 8.76562H11.3333H9.95825ZM0.333252 9.10938H2.39575H0.333252ZM3.77075 9.10938H7.89575H3.77075ZM9.27075 9.10938H11.3333H9.27075ZM0.333252 9.45312H3.08325H0.333252ZM8.58325 9.45312H11.3333H8.58325ZM0.677002 9.79688H2.39575H0.677002ZM9.27075 9.79688H10.9895H9.27075ZM1.02075 10.1406H2.052H1.02075ZM9.6145 10.1406H10.6458H9.6145Z" fill="white"/>
<path d="M2.052 1.20312H3.427M8.2395 1.20312H9.95825M1.70825 1.54688H4.1145M7.552 1.54688H10.302M1.3645 1.89062H4.802M6.8645 1.89062H10.6458M1.02075 2.23438H10.6458M1.02075 2.57812H10.9895M0.677002 2.92188H10.9895M0.677002 3.26562H10.9895M0.677002 3.60938H10.9895M0.333252 3.95312H11.3333M0.333252 4.29688H11.3333M0.333252 4.64062H3.08325M4.45825 4.64062H7.20825M8.58325 4.64062H11.3333M0.333252 4.98438H2.7395M4.802 4.98438H6.8645M8.927 4.98438H11.3333M0.333252 5.32812H2.39575M5.14575 5.32812H6.52075M9.27075 5.32812H11.3333M0.333252 5.67188H2.39575M5.14575 5.67188H6.52075M9.27075 5.67188H11.3333M0.333252 6.01562H2.39575M5.14575 6.01562H6.52075M9.27075 6.01562H11.3333M0.333252 6.35938H2.39575M5.14575 6.35938H6.52075M9.27075 6.35938H11.3333M0.333252 6.70312H2.7395M4.802 6.70312H6.8645M8.927 6.70312H11.3333M0.333252 7.04688H3.08325M4.45825 7.04688H7.20825M8.58325 7.04688H11.3333M0.333252 7.39062H11.3333M0.333252 7.73438H11.3333M0.333252 8.07812H11.3333M0.333252 8.42188H1.3645M1.70825 8.42188H9.95825M10.302 8.42188H11.3333M0.333252 8.76562H1.70825M2.39575 8.76562H9.27075M9.95825 8.76562H11.3333M0.333252 9.10938H2.39575M3.77075 9.10938H7.89575M9.27075 9.10938H11.3333M0.333252 9.45312H3.08325M8.58325 9.45312H11.3333M0.677002 9.79688H2.39575M9.27075 9.79688H10.9895M1.02075 10.1406H2.052M9.6145 10.1406H10.6458" stroke="white" stroke-width="0.4"/>
</g>
<defs>
<clipPath id="clip0_37_472">
<rect width="11" height="11" fill="white" transform="translate(0.333252)"/>
</clipPath>
</defs>
</svg>
