<svg width="12" height="11" viewBox="0 0 12 11" fill="none" xmlns="http://www.w3.org/2000/svg">
<g clip-path="url(#clip0_24_61)">
<path d="M2.05209 1.20312H3.42709H2.05209ZM8.23959 1.20312H9.95834H8.23959ZM1.70834 1.54688H4.11459H1.70834ZM7.55209 1.54688H10.3021H7.55209ZM1.36459 1.89062H4.80209H1.36459ZM6.86459 1.89062H10.6458H6.86459ZM1.02084 2.23438H10.6458H1.02084ZM1.02084 2.57812H10.9896H1.02084ZM0.677094 2.92188H10.9896H0.677094ZM0.677094 3.26562H10.9896H0.677094ZM0.677094 3.60938H10.9896H0.677094ZM0.333344 3.95312H11.3333H0.333344ZM0.333344 4.29688H11.3333H0.333344ZM0.333344 4.64062H3.08334H0.333344ZM4.45834 4.64062H7.20834H4.45834ZM8.58334 4.64062H11.3333H8.58334ZM0.333344 4.98438H2.73959H0.333344ZM4.80209 4.98438H6.86459H4.80209ZM8.92709 4.98438H11.3333H8.92709ZM0.333344 5.32812H2.39584H0.333344ZM5.14584 5.32812H6.52084H5.14584ZM9.27084 5.32812H11.3333H9.27084ZM0.333344 5.67188H2.39584H0.333344ZM5.14584 5.67188H6.52084H5.14584ZM9.27084 5.67188H11.3333H9.27084ZM0.333344 6.01562H2.39584H0.333344ZM5.14584 6.01562H6.52084H5.14584ZM9.27084 6.01562H11.3333H9.27084ZM0.333344 6.35938H2.39584H0.333344ZM5.14584 6.35938H6.52084H5.14584ZM9.27084 6.35938H11.3333H9.27084ZM0.333344 6.70312H2.73959H0.333344ZM4.80209 6.70312H6.86459H4.80209ZM8.92709 6.70312H11.3333H8.92709ZM0.333344 7.04688H3.08334H0.333344ZM4.45834 7.04688H7.20834H4.45834ZM8.58334 7.04688H11.3333H8.58334ZM0.333344 7.39062H11.3333H0.333344ZM0.333344 7.73438H11.3333H0.333344ZM0.333344 8.07812H11.3333H0.333344ZM0.333344 8.42188H1.36459H0.333344ZM1.70834 8.42188H9.95834H1.70834ZM10.3021 8.42188H11.3333H10.3021ZM0.333344 8.76562H1.70834H0.333344ZM2.39584 8.76562H9.27084H2.39584ZM9.95834 8.76562H11.3333H9.95834ZM0.333344 9.10938H2.39584H0.333344ZM3.77084 9.10938H7.89584H3.77084ZM9.27084 9.10938H11.3333H9.27084ZM0.333344 9.45312H3.08334H0.333344ZM8.58334 9.45312H11.3333H8.58334ZM0.677094 9.79688H2.39584H0.677094ZM9.27084 9.79688H10.9896H9.27084ZM1.02084 10.1406H2.05209H1.02084ZM9.61459 10.1406H10.6458H9.61459Z" fill="black"/>
<path d="M2.05209 1.20312H3.42709M8.23959 1.20312H9.95834M1.70834 1.54688H4.11459M7.55209 1.54688H10.3021M1.36459 1.89062H4.80209M6.86459 1.89062H10.6458M1.02084 2.23438H10.6458M1.02084 2.57812H10.9896M0.677094 2.92188H10.9896M0.677094 3.26562H10.9896M0.677094 3.60938H10.9896M0.333344 3.95312H11.3333M0.333344 4.29688H11.3333M0.333344 4.64062H3.08334M4.45834 4.64062H7.20834M8.58334 4.64062H11.3333M0.333344 4.98438H2.73959M4.80209 4.98438H6.86459M8.92709 4.98438H11.3333M0.333344 5.32812H2.39584M5.14584 5.32812H6.52084M9.27084 5.32812H11.3333M0.333344 5.67188H2.39584M5.14584 5.67188H6.52084M9.27084 5.67188H11.3333M0.333344 6.01562H2.39584M5.14584 6.01562H6.52084M9.27084 6.01562H11.3333M0.333344 6.35938H2.39584M5.14584 6.35938H6.52084M9.27084 6.35938H11.3333M0.333344 6.70312H2.73959M4.80209 6.70312H6.86459M8.92709 6.70312H11.3333M0.333344 7.04688H3.08334M4.45834 7.04688H7.20834M8.58334 7.04688H11.3333M0.333344 7.39062H11.3333M0.333344 7.73438H11.3333M0.333344 8.07812H11.3333M0.333344 8.42188H1.36459M1.70834 8.42188H9.95834M10.3021 8.42188H11.3333M0.333344 8.76562H1.70834M2.39584 8.76562H9.27084M9.95834 8.76562H11.3333M0.333344 9.10938H2.39584M3.77084 9.10938H7.89584M9.27084 9.10938H11.3333M0.333344 9.45312H3.08334M8.58334 9.45312H11.3333M0.677094 9.79688H2.39584M9.27084 9.79688H10.9896M1.02084 10.1406H2.05209M9.61459 10.1406H10.6458" stroke="url(#paint0_linear_24_61)" stroke-width="0.4"/>
</g>
<defs>
<linearGradient id="paint0_linear_24_61" x1="0.333344" y1="1.05897" x2="9.41825" y2="11.891" gradientUnits="userSpaceOnUse">
<stop stop-color="white"/>
<stop offset="1" stop-color="#999999"/>
</linearGradient>
<clipPath id="clip0_24_61">
<rect width="11" height="11" fill="white" transform="translate(0.333344)"/>
</clipPath>
</defs>
</svg>
