<svg width="13" height="11" viewBox="0 0 13 11" fill="none" xmlns="http://www.w3.org/2000/svg">
<g clip-path="url(#clip0_37_474)">
<path d="M5.54175 0.171875H7.79175H5.54175ZM4.41675 0.515625H8.91675H4.41675ZM3.66675 0.859375H9.66675H3.66675ZM3.29175 1.20312H10.0417H3.29175ZM2.54175 1.54688H10.7917H2.54175ZM2.16675 1.89062H3.29175H2.16675ZM4.79175 1.89062H8.54175H4.79175ZM10.0417 1.89062H11.1667H10.0417ZM2.16675 2.23438H3.29175H2.16675ZM5.16675 2.23438H5.54175H5.16675ZM7.79175 2.23438H8.16675H7.79175ZM10.0417 2.23438H11.1667H10.0417ZM1.79175 2.57812H3.29175H1.79175ZM10.0417 2.57812H11.5417H10.0417ZM1.41675 2.92188H3.29175H1.41675ZM10.0417 2.92188H11.9167H10.0417ZM1.41675 3.26562H3.66675H1.41675ZM9.66675 3.26562H11.9167H9.66675ZM1.04175 3.60938H3.29175H1.04175ZM10.0417 3.60938H12.2917H10.0417ZM1.04175 3.95312H3.29175H1.04175ZM10.0417 3.95312H12.2917H10.0417ZM1.04175 4.29688H3.29175H1.04175ZM10.0417 4.29688H12.2917H10.0417ZM0.666748 4.64062H3.29175H0.666748ZM10.0417 4.64062H12.6667H10.0417ZM0.666748 4.98438H3.29175H0.666748ZM10.0417 4.98438H12.6667H10.0417ZM0.666748 5.32812H3.29175H0.666748ZM10.0417 5.32812H12.6667H10.0417ZM0.666748 5.67188H3.66675H0.666748ZM9.66675 5.67188H12.6667H9.66675ZM0.666748 6.01562H4.04175H0.666748ZM9.29175 6.01562H12.6667H9.29175ZM0.666748 6.35938H4.41675H0.666748ZM8.91675 6.35938H12.6667H8.91675ZM1.04175 6.70312H5.16675H1.04175ZM8.16675 6.70312H12.2917H8.16675ZM1.04175 7.04688H5.54175H1.04175ZM7.79175 7.04688H12.2917H7.79175ZM1.04175 7.39062H5.54175H1.04175ZM7.79175 7.39062H12.2917H7.79175ZM1.41675 7.73438H5.54175H1.41675ZM7.79175 7.73438H11.9167H7.79175ZM1.41675 8.07812H3.66675H1.41675ZM4.04175 8.07812H5.54175H4.04175ZM7.79175 8.07812H11.9167H7.79175ZM1.79175 8.42188H3.66675H1.79175ZM4.41675 8.42188H5.54175H4.41675ZM7.79175 8.42188H11.5417H7.79175ZM2.16675 8.76562H4.04175H2.16675ZM7.79175 8.76562H11.1667H7.79175ZM2.16675 9.10938H5.16675H2.16675ZM7.79175 9.10938H11.1667H7.79175ZM2.54175 9.45312H5.54175H2.54175ZM7.79175 9.45312H10.7917H7.79175ZM3.29175 9.79688H5.54175H3.29175ZM7.79175 9.79688H10.0417H7.79175ZM3.66675 10.1406H5.54175H3.66675ZM7.79175 10.1406H9.66675H7.79175ZM4.41675 10.4844H5.54175H4.41675ZM7.79175 10.4844H8.91675H7.79175Z" fill="white"/>
<path d="M5.54175 0.171875H7.79175M4.41675 0.515625H8.91675M3.66675 0.859375H9.66675M3.29175 1.20312H10.0417M2.54175 1.54688H10.7917M2.16675 1.89062H3.29175M4.79175 1.89062H8.54175M10.0417 1.89062H11.1667M2.16675 2.23438H3.29175M5.16675 2.23438H5.54175M7.79175 2.23438H8.16675M10.0417 2.23438H11.1667M1.79175 2.57812H3.29175M10.0417 2.57812H11.5417M1.41675 2.92188H3.29175M10.0417 2.92188H11.9167M1.41675 3.26562H3.66675M9.66675 3.26562H11.9167M1.04175 3.60938H3.29175M10.0417 3.60938H12.2917M1.04175 3.95312H3.29175M10.0417 3.95312H12.2917M1.04175 4.29688H3.29175M10.0417 4.29688H12.2917M0.666748 4.64062H3.29175M10.0417 4.64062H12.6667M0.666748 4.98438H3.29175M10.0417 4.98438H12.6667M0.666748 5.32812H3.29175M10.0417 5.32812H12.6667M0.666748 5.67188H3.66675M9.66675 5.67188H12.6667M0.666748 6.01562H4.04175M9.29175 6.01562H12.6667M0.666748 6.35938H4.41675M8.91675 6.35938H12.6667M1.04175 6.70312H5.16675M8.16675 6.70312H12.2917M1.04175 7.04688H5.54175M7.79175 7.04688H12.2917M1.04175 7.39062H5.54175M7.79175 7.39062H12.2917M1.41675 7.73438H5.54175M7.79175 7.73438H11.9167M1.41675 8.07812H3.66675M4.04175 8.07812H5.54175M7.79175 8.07812H11.9167M1.79175 8.42188H3.66675M4.41675 8.42188H5.54175M7.79175 8.42188H11.5417M2.16675 8.76562H4.04175M7.79175 8.76562H11.1667M2.16675 9.10938H5.16675M7.79175 9.10938H11.1667M2.54175 9.45312H5.54175M7.79175 9.45312H10.7917M3.29175 9.79688H5.54175M7.79175 9.79688H10.0417M3.66675 10.1406H5.54175M7.79175 10.1406H9.66675M4.41675 10.4844H5.54175M7.79175 10.4844H8.91675" stroke="white" stroke-width="0.4"/>
</g>
<defs>
<clipPath id="clip0_37_474">
<rect width="12" height="11" fill="white" transform="translate(0.666748)"/>
</clipPath>
</defs>
</svg>
