<svg width="13" height="11" viewBox="0 0 13 11" fill="none" xmlns="http://www.w3.org/2000/svg">
<g clip-path="url(#clip0_24_64)">
<path d="M5.54166 0.171875H7.79166H5.54166ZM4.41666 0.515625H8.91666H4.41666ZM3.66666 0.859375H9.66666H3.66666ZM3.29166 1.20312H10.0417H3.29166ZM2.54166 1.54688H10.7917H2.54166ZM2.16666 1.89062H3.29166H2.16666ZM4.79166 1.89062H8.54166H4.79166ZM10.0417 1.89062H11.1667H10.0417ZM2.16666 2.23438H3.29166H2.16666ZM5.16666 2.23438H5.54166H5.16666ZM7.79166 2.23438H8.16666H7.79166ZM10.0417 2.23438H11.1667H10.0417ZM1.79166 2.57812H3.29166H1.79166ZM10.0417 2.57812H11.5417H10.0417ZM1.41666 2.92188H3.29166H1.41666ZM10.0417 2.92188H11.9167H10.0417ZM1.41666 3.26562H3.66666H1.41666ZM9.66666 3.26562H11.9167H9.66666ZM1.04166 3.60938H3.29166H1.04166ZM10.0417 3.60938H12.2917H10.0417ZM1.04166 3.95312H3.29166H1.04166ZM10.0417 3.95312H12.2917H10.0417ZM1.04166 4.29688H3.29166H1.04166ZM10.0417 4.29688H12.2917H10.0417ZM0.666656 4.64062H3.29166H0.666656ZM10.0417 4.64062H12.6667H10.0417ZM0.666656 4.98438H3.29166H0.666656ZM10.0417 4.98438H12.6667H10.0417ZM0.666656 5.32812H3.29166H0.666656ZM10.0417 5.32812H12.6667H10.0417ZM0.666656 5.67188H3.66666H0.666656ZM9.66666 5.67188H12.6667H9.66666ZM0.666656 6.01562H4.04166H0.666656ZM9.29166 6.01562H12.6667H9.29166ZM0.666656 6.35938H4.41666H0.666656ZM8.91666 6.35938H12.6667H8.91666ZM1.04166 6.70312H5.16666H1.04166ZM8.16666 6.70312H12.2917H8.16666ZM1.04166 7.04688H5.54166H1.04166ZM7.79166 7.04688H12.2917H7.79166ZM1.04166 7.39062H5.54166H1.04166ZM7.79166 7.39062H12.2917H7.79166ZM1.41666 7.73438H5.54166H1.41666ZM7.79166 7.73438H11.9167H7.79166ZM1.41666 8.07812H3.66666H1.41666ZM4.04166 8.07812H5.54166H4.04166ZM7.79166 8.07812H11.9167H7.79166ZM1.79166 8.42188H3.66666H1.79166ZM4.41666 8.42188H5.54166H4.41666ZM7.79166 8.42188H11.5417H7.79166ZM2.16666 8.76562H4.04166H2.16666ZM7.79166 8.76562H11.1667H7.79166ZM2.16666 9.10938H5.16666H2.16666ZM7.79166 9.10938H11.1667H7.79166ZM2.54166 9.45312H5.54166H2.54166ZM7.79166 9.45312H10.7917H7.79166ZM3.29166 9.79688H5.54166H3.29166ZM7.79166 9.79688H10.0417H7.79166ZM3.66666 10.1406H5.54166H3.66666ZM7.79166 10.1406H9.66666H7.79166ZM4.41666 10.4844H5.54166H4.41666ZM7.79166 10.4844H8.91666H7.79166Z" fill="black"/>
<path d="M5.54166 0.171875H7.79166M4.41666 0.515625H8.91666M3.66666 0.859375H9.66666M3.29166 1.20312H10.0417M2.54166 1.54688H10.7917M2.16666 1.89062H3.29166M4.79166 1.89062H8.54166M10.0417 1.89062H11.1667M2.16666 2.23438H3.29166M5.16666 2.23438H5.54166M7.79166 2.23438H8.16666M10.0417 2.23438H11.1667M1.79166 2.57812H3.29166M10.0417 2.57812H11.5417M1.41666 2.92188H3.29166M10.0417 2.92188H11.9167M1.41666 3.26562H3.66666M9.66666 3.26562H11.9167M1.04166 3.60938H3.29166M10.0417 3.60938H12.2917M1.04166 3.95312H3.29166M10.0417 3.95312H12.2917M1.04166 4.29688H3.29166M10.0417 4.29688H12.2917M0.666656 4.64062H3.29166M10.0417 4.64062H12.6667M0.666656 4.98438H3.29166M10.0417 4.98438H12.6667M0.666656 5.32812H3.29166M10.0417 5.32812H12.6667M0.666656 5.67188H3.66666M9.66666 5.67188H12.6667M0.666656 6.01562H4.04166M9.29166 6.01562H12.6667M0.666656 6.35938H4.41666M8.91666 6.35938H12.6667M1.04166 6.70312H5.16666M8.16666 6.70312H12.2917M1.04166 7.04688H5.54166M7.79166 7.04688H12.2917M1.04166 7.39062H5.54166M7.79166 7.39062H12.2917M1.41666 7.73438H5.54166M7.79166 7.73438H11.9167M1.41666 8.07812H3.66666M4.04166 8.07812H5.54166M7.79166 8.07812H11.9167M1.79166 8.42188H3.66666M4.41666 8.42188H5.54166M7.79166 8.42188H11.5417M2.16666 8.76562H4.04166M7.79166 8.76562H11.1667M2.16666 9.10938H5.16666M7.79166 9.10938H11.1667M2.54166 9.45312H5.54166M7.79166 9.45312H10.7917M3.29166 9.79688H5.54166M7.79166 9.79688H10.0417M3.66666 10.1406H5.54166M7.79166 10.1406H9.66666M4.41666 10.4844H5.54166M7.79166 10.4844H8.91666" stroke="url(#paint0_linear_24_64)" stroke-width="0.4"/>
</g>
<defs>
<linearGradient id="paint0_linear_24_64" x1="0.666657" y1="0.00554443" x2="11.2359" y2="11.9199" gradientUnits="userSpaceOnUse">
<stop stop-color="white"/>
<stop offset="1" stop-color="#999999"/>
</linearGradient>
<clipPath id="clip0_24_64">
<rect width="12" height="11" fill="white" transform="translate(0.666656)"/>
</clipPath>
</defs>
</svg>
