<svg width="11" height="11" viewBox="0 0 11 11" fill="none" xmlns="http://www.w3.org/2000/svg">
<g clip-path="url(#clip0_24_55)">
<path d="M1.03125 0.171875H9.96875H1.03125ZM0.6875 0.515625H10.3125H0.6875ZM0.34375 0.859375H10.6562H0.34375ZM0 1.20312H11H0ZM0 1.54688H11H0ZM0 1.89062H2.0625H0ZM2.75 1.89062H11H2.75ZM0 2.23438H1.71875H0ZM3.09375 2.23438H11H3.09375ZM0 2.57812H1.71875H0ZM3.09375 2.57812H11H3.09375ZM0 2.92188H2.0625H0ZM2.75 2.92188H11H2.75ZM0 3.26562H11H0ZM0 3.60938H11H0ZM0 3.95312H1.71875H0ZM3.09375 3.95312H4.125H3.09375ZM5.5 3.95312H11H5.5ZM0 4.29688H1.71875H0ZM3.09375 4.29688H4.125H3.09375ZM5.5 4.29688H6.1875H5.5ZM8.25 4.29688H11H8.25ZM0 4.64062H1.71875H0ZM3.09375 4.64062H4.125H3.09375ZM8.59375 4.64062H11H8.59375ZM0 4.98438H1.71875H0ZM3.09375 4.98438H4.125H3.09375ZM8.9375 4.98438H11H8.9375ZM0 5.32812H1.71875H0ZM3.09375 5.32812H4.125H3.09375ZM9.28125 5.32812H11H9.28125ZM0 5.67188H1.71875H0ZM3.09375 5.67188H4.125H3.09375ZM6.53125 5.67188H7.5625H6.53125ZM9.625 5.67188H11H9.625ZM0 6.01562H1.71875H0ZM3.09375 6.01562H4.125H3.09375ZM6.1875 6.01562H7.90625H6.1875ZM9.625 6.01562H11H9.625ZM0 6.35938H1.71875H0ZM3.09375 6.35938H4.125H3.09375ZM5.84375 6.35938H8.25H5.84375ZM9.625 6.35938H11H9.625ZM0 6.70312H1.71875H0ZM3.09375 6.70312H4.125H3.09375ZM5.5 6.70312H8.25H5.5ZM9.625 6.70312H11H9.625ZM0 7.04688H1.71875H0ZM3.09375 7.04688H4.125H3.09375ZM5.5 7.04688H8.25H5.5ZM9.625 7.04688H11H9.625ZM0 7.39062H1.71875H0ZM3.09375 7.39062H4.125H3.09375ZM5.5 7.39062H8.25H5.5ZM9.625 7.39062H11H9.625ZM0 7.73438H1.71875H0ZM3.09375 7.73438H4.125H3.09375ZM5.5 7.73438H8.25H5.5ZM9.625 7.73438H11H9.625ZM0 8.07812H1.71875H0ZM3.09375 8.07812H4.125H3.09375ZM5.5 8.07812H8.25H5.5ZM9.625 8.07812H11H9.625ZM0 8.42188H1.71875H0ZM3.09375 8.42188H4.125H3.09375ZM5.5 8.42188H8.25H5.5ZM9.625 8.42188H11H9.625ZM0 8.76562H1.71875H0ZM3.09375 8.76562H4.125H3.09375ZM5.5 8.76562H8.25H5.5ZM9.625 8.76562H11H9.625ZM0 9.10938H1.71875H0ZM3.09375 9.10938H4.125H3.09375ZM5.5 9.10938H8.25H5.5ZM9.625 9.10938H11H9.625ZM0 9.45312H1.71875H0ZM3.09375 9.45312H4.125H3.09375ZM5.5 9.45312H8.25H5.5ZM9.625 9.45312H11H9.625ZM0 9.79688H11H0ZM0.34375 10.1406H10.6562H0.34375ZM0.6875 10.4844H10.3125H0.6875ZM1.03125 10.8281H9.96875H1.03125Z" fill="black"/>
<path d="M1.03125 0.171875H9.96875M0.6875 0.515625H10.3125M0.34375 0.859375H10.6562M0 1.20312H11M0 1.54688H11M0 1.89062H2.0625M2.75 1.89062H11M0 2.23438H1.71875M3.09375 2.23438H11M0 2.57812H1.71875M3.09375 2.57812H11M0 2.92188H2.0625M2.75 2.92188H11M0 3.26562H11M0 3.60938H11M0 3.95312H1.71875M3.09375 3.95312H4.125M5.5 3.95312H11M0 4.29688H1.71875M3.09375 4.29688H4.125M5.5 4.29688H6.1875M8.25 4.29688H11M0 4.64062H1.71875M3.09375 4.64062H4.125M8.59375 4.64062H11M0 4.98438H1.71875M3.09375 4.98438H4.125M8.9375 4.98438H11M0 5.32812H1.71875M3.09375 5.32812H4.125M9.28125 5.32812H11M0 5.67188H1.71875M3.09375 5.67188H4.125M6.53125 5.67188H7.5625M9.625 5.67188H11M0 6.01562H1.71875M3.09375 6.01562H4.125M6.1875 6.01562H7.90625M9.625 6.01562H11M0 6.35938H1.71875M3.09375 6.35938H4.125M5.84375 6.35938H8.25M9.625 6.35938H11M0 6.70312H1.71875M3.09375 6.70312H4.125M5.5 6.70312H8.25M9.625 6.70312H11M0 7.04688H1.71875M3.09375 7.04688H4.125M5.5 7.04688H8.25M9.625 7.04688H11M0 7.39062H1.71875M3.09375 7.39062H4.125M5.5 7.39062H8.25M9.625 7.39062H11M0 7.73438H1.71875M3.09375 7.73438H4.125M5.5 7.73438H8.25M9.625 7.73438H11M0 8.07812H1.71875M3.09375 8.07812H4.125M5.5 8.07812H8.25M9.625 8.07812H11M0 8.42188H1.71875M3.09375 8.42188H4.125M5.5 8.42188H8.25M9.625 8.42188H11M0 8.76562H1.71875M3.09375 8.76562H4.125M5.5 8.76562H8.25M9.625 8.76562H11M0 9.10938H1.71875M3.09375 9.10938H4.125M5.5 9.10938H8.25M9.625 9.10938H11M0 9.45312H1.71875M3.09375 9.45312H4.125M5.5 9.45312H8.25M9.625 9.45312H11M0 9.79688H11M0.34375 10.1406H10.6562M0.6875 10.4844H10.3125M1.03125 10.8281H9.96875" stroke="url(#paint0_linear_24_55)" stroke-width="0.4"/>
</g>
<defs>
<linearGradient id="paint0_linear_24_55" x1="7.69993e-08" y1="7.69993e-08" x2="11" y2="11" gradientUnits="userSpaceOnUse">
<stop stop-color="white"/>
<stop offset="1" stop-color="#999999"/>
</linearGradient>
<clipPath id="clip0_24_55">
<rect width="11" height="11" fill="white"/>
</clipPath>
</defs>
</svg>
