<svg width="12" height="11" viewBox="0 0 12 11" fill="none" xmlns="http://www.w3.org/2000/svg">
<g clip-path="url(#clip0_37_476)">
<path d="M4.875 0.171875H7.125H4.875ZM3.75 0.515625H8.25H3.75ZM3 0.859375H9H3ZM2.625 1.20312H9.375H2.625ZM1.875 1.54688H10.125H1.875ZM1.5 1.89062H10.5H1.5ZM1.5 2.23438H10.5H1.5ZM1.125 2.57812H10.875H1.125ZM0.75 2.92188H8.25H0.75ZM9 2.92188H11.25H9ZM0.75 3.26562H7.5H0.75ZM9 3.26562H11.25H9ZM0.375 3.60938H6.75H0.375ZM9 3.60938H11.625H9ZM0.375 3.95312H6H0.375ZM9 3.95312H11.625H9ZM0.375 4.29688H5.25H0.375ZM8.625 4.29688H11.625H8.625ZM0 4.64062H4.5H0ZM6.75 4.64062H7.125H6.75ZM8.625 4.64062H12H8.625ZM0 4.98438H4.125H0ZM6.375 4.98438H6.75H6.375ZM8.25 4.98438H12H8.25ZM0 5.32812H3.375H0ZM6 5.32812H6.375H6ZM8.25 5.32812H12H8.25ZM0 5.67188H2.625H0ZM5.25 5.67188H6H5.25ZM8.25 5.67188H12H8.25ZM0 6.01562H1.875H0ZM4.875 6.01562H5.625H4.875ZM7.875 6.01562H12H7.875ZM0 6.35938H1.875H0ZM4.5 6.35938H5.25H4.5ZM7.875 6.35938H12H7.875ZM0.375 6.70312H2.25H0.375ZM4.125 6.70312H5.25H4.125ZM7.5 6.70312H11.625H7.5ZM0.375 7.04688H2.625H0.375ZM3.75 7.04688H4.875H3.75ZM7.5 7.04688H11.625H7.5ZM0.375 7.39062H4.5H0.375ZM7.5 7.39062H11.625H7.5ZM0.75 7.73438H4.125H0.75ZM7.125 7.73438H11.25H7.125ZM0.75 8.07812H4.5H0.75ZM7.125 8.07812H11.25H7.125ZM1.125 8.42188H5.25H1.125ZM6.75 8.42188H10.875H6.75ZM1.5 8.76562H6H1.5ZM6.75 8.76562H10.5H6.75ZM1.5 9.10938H10.5H1.5ZM1.875 9.45312H10.125H1.875ZM2.625 9.79688H9.375H2.625ZM3 10.1406H9H3ZM3.75 10.4844H8.25H3.75ZM4.875 10.8281H7.125H4.875Z" fill="white"/>
<path d="M4.875 0.171875H7.125M3.75 0.515625H8.25M3 0.859375H9M2.625 1.20312H9.375M1.875 1.54688H10.125M1.5 1.89062H10.5M1.5 2.23438H10.5M1.125 2.57812H10.875M0.75 2.92188H8.25M9 2.92188H11.25M0.75 3.26562H7.5M9 3.26562H11.25M0.375 3.60938H6.75M9 3.60938H11.625M0.375 3.95312H6M9 3.95312H11.625M0.375 4.29688H5.25M8.625 4.29688H11.625M0 4.64062H4.5M6.75 4.64062H7.125M8.625 4.64062H12M0 4.98438H4.125M6.375 4.98438H6.75M8.25 4.98438H12M0 5.32812H3.375M6 5.32812H6.375M8.25 5.32812H12M0 5.67188H2.625M5.25 5.67188H6M8.25 5.67188H12M0 6.01562H1.875M4.875 6.01562H5.625M7.875 6.01562H12M0 6.35938H1.875M4.5 6.35938H5.25M7.875 6.35938H12M0.375 6.70312H2.25M4.125 6.70312H5.25M7.5 6.70312H11.625M0.375 7.04688H2.625M3.75 7.04688H4.875M7.5 7.04688H11.625M0.375 7.39062H4.5M7.5 7.39062H11.625M0.75 7.73438H4.125M7.125 7.73438H11.25M0.75 8.07812H4.5M7.125 8.07812H11.25M1.125 8.42188H5.25M6.75 8.42188H10.875M1.5 8.76562H6M6.75 8.76562H10.5M1.5 9.10938H10.5M1.875 9.45312H10.125M2.625 9.79688H9.375M3 10.1406H9M3.75 10.4844H8.25M4.875 10.8281H7.125" stroke="white" stroke-width="0.4"/>
</g>
<defs>
<clipPath id="clip0_37_476">
<rect width="12" height="11" fill="white"/>
</clipPath>
</defs>
</svg>
