<svg width="252" height="102" viewBox="0 0 252 102" fill="none" xmlns="http://www.w3.org/2000/svg">
<g filter="url(#filter0_b_88_346)">
<g clip-path="url(#clip0_88_346)">
<path d="M251.754 0H0.246022C0.110148 0 0 0.0563692 0 0.125904V101.874C0 101.944 0.110148 102 0.246022 102H251.754C251.89 102 252 101.944 252 101.874V0.125904C252 0.0563692 251.89 0 251.754 0Z" fill="url(#paint0_linear_88_346)"/>
<path d="M251.754 13H0.246022C0.110148 13 0 13.0525 0 13.1173V101.883C0 101.947 0.110148 102 0.246022 102H251.754C251.89 102 252 101.947 252 101.883V13.1173C252 13.0525 251.89 13 251.754 13Z" fill="#485656"/>
<path d="M249.754 13H1.24618C1.11022 13 1 13.0523 1 13.1169V99.8831C1 99.9477 1.11022 100 1.24618 100H249.754C249.89 100 250 99.9477 250 99.8831V13.1169C250 13.0523 249.89 13 249.754 13Z" fill="black"/>
<path d="M7.15086 19.9387C7.04895 19.8796 6.93718 19.837 6.81555 19.8107C6.69721 19.7812 6.56571 19.7664 6.42107 19.7664C5.90826 19.7664 5.51374 19.9338 5.23766 20.2685C4.96481 20.6 4.82839 21.0776 4.82839 21.7012V24.6059H3.91614V19.0918H4.82839V19.9485C5.01905 19.6137 5.26724 19.3659 5.57295 19.2051C5.87866 19.041 6.25014 18.9589 6.68732 18.9589C6.74978 18.9589 6.81882 18.9638 6.89443 18.9737C6.97003 18.9803 7.05386 18.9918 7.1459 19.0082L7.15086 19.9387Z" fill="#00B8FF"/>
<path d="M10.0357 19.7274C9.54919 19.7274 9.16455 19.9178 8.88187 20.2985C8.59916 20.676 8.4578 21.1946 8.45781 21.8543C8.45781 22.514 8.59752 23.0342 8.87694 23.415C9.15965 23.7924 9.54593 23.9812 10.0357 23.9812C10.5189 23.9812 10.9019 23.7908 11.1846 23.4101C11.4673 23.0293 11.6087 22.5107 11.6087 21.8543C11.6087 21.2012 11.4673 20.6842 11.1846 20.3035C10.9019 19.9194 10.5189 19.7274 10.0357 19.7274ZM10.0357 18.9594C10.8246 18.9594 11.4443 19.2154 11.8947 19.7274C12.3451 20.2394 12.5702 20.9484 12.5702 21.8543C12.5702 22.7569 12.345 23.4659 11.8947 23.9812C11.4443 24.4932 10.8246 24.7492 10.0357 24.7492C9.24347 24.7492 8.62216 24.4932 8.1718 23.9812C7.72472 23.4659 7.50119 22.7569 7.50119 21.8543C7.50119 20.9484 7.72473 20.2395 8.1718 19.7274C8.62216 19.2154 9.24347 18.9594 10.0357 18.9594Z" fill="#00B8FF"/>
<path d="M16.2094 19.7274C15.7229 19.7274 15.3382 19.9178 15.0556 20.2985C14.7728 20.676 14.6315 21.1946 14.6315 21.8543C14.6315 22.514 14.7712 23.0342 15.0506 23.415C15.3333 23.7924 15.7196 23.9812 16.2094 23.9812C16.6926 23.9812 17.0756 23.7908 17.3583 23.4101C17.641 23.0293 17.7824 22.5107 17.7824 21.8543C17.7824 21.2012 17.641 20.6842 17.3583 20.3035C17.0756 19.9194 16.6926 19.7274 16.2094 19.7274ZM16.2094 18.9594C16.9983 18.9594 17.618 19.2154 18.0684 19.7274C18.5187 20.2394 18.7439 20.9484 18.7439 21.8543C18.7439 22.7569 18.5187 23.4659 18.0684 23.9812C17.618 24.4932 16.9983 24.7492 16.2094 24.7492C15.4171 24.7492 14.7958 24.4932 14.3455 23.9812C13.8984 23.4659 13.6749 22.7569 13.6749 21.8543C13.6749 20.9484 13.8984 20.2395 14.3455 19.7274C14.7958 19.2154 15.4171 18.9594 16.2094 18.9594Z" fill="#00B8FF"/>
<path d="M21.1401 17.5265V19.0921H23.009V19.7962H21.1401V22.7895C21.1401 23.2391 21.2009 23.528 21.3226 23.656C21.4475 23.784 21.699 23.848 22.077 23.848H23.009V24.6062H22.077C21.3769 24.6062 20.8936 24.4765 20.6273 24.2172C20.361 23.9547 20.2279 23.4788 20.2279 22.7895V19.7962H19.5622V19.0921H20.2279V17.5265L21.1401 17.5265Z" fill="#00B8FF"/>
<path d="M27.0141 21.9627C27.0141 22.4321 27.1308 22.8013 27.3642 23.0704C27.5976 23.3363 27.9181 23.4692 28.3258 23.4692C28.7301 23.4692 29.0474 23.3347 29.2775 23.0655C29.5109 22.7964 29.6276 22.4288 29.6276 21.9627C29.6276 21.5032 29.5092 21.1389 29.2725 20.8697C29.0358 20.5973 28.717 20.4611 28.3159 20.4611C27.9181 20.4611 27.6009 20.5957 27.3642 20.8648C27.1308 21.1339 27.0141 21.4999 27.0141 21.9627ZM29.7015 23.4347C29.5043 23.6875 29.2775 23.8746 29.021 23.996C28.7679 24.1141 28.4721 24.1732 28.1334 24.1732C27.568 24.1732 27.1078 23.9697 26.7528 23.5627C26.401 23.1524 26.2251 22.6191 26.2251 21.9626C26.2251 21.3062 26.4027 20.7729 26.7577 20.3626C27.1127 19.9523 27.5713 19.7471 28.1334 19.7471C28.472 19.7471 28.7695 19.8095 29.026 19.9342C29.2824 20.0557 29.5075 20.2411 29.7015 20.4905V19.8456H30.4066V23.4691C30.8866 23.3969 31.2613 23.1787 31.5309 22.8144C31.8037 22.4467 31.9402 21.9725 31.9402 21.3915C31.9402 21.0403 31.8876 20.7105 31.7824 20.402C31.6805 20.0934 31.5243 19.8079 31.3139 19.5453C30.972 19.1154 30.5546 18.7872 30.0615 18.5607C29.5717 18.3309 29.0375 18.216 28.4589 18.216C28.0546 18.216 27.6667 18.2702 27.2952 18.3785C26.9237 18.4835 26.5802 18.6411 26.2646 18.8511C25.7485 19.1859 25.3441 19.6257 25.0515 20.1706C24.7623 20.7122 24.6176 21.2997 24.6176 21.9331C24.6176 22.455 24.7113 22.944 24.8987 23.4003C25.0894 23.8565 25.3638 24.2586 25.7222 24.6064C26.0673 24.9478 26.4667 25.2071 26.9204 25.3843C27.374 25.5648 27.8589 25.6551 28.375 25.6551C28.7991 25.6551 29.2149 25.5829 29.6225 25.4385C30.0335 25.2974 30.4099 25.0939 30.7517 24.828L31.1955 25.3745C30.7846 25.6929 30.3359 25.9357 29.8493 26.1031C29.3661 26.2738 28.8747 26.3592 28.375 26.3592C27.7668 26.3592 27.1932 26.2508 26.6541 26.0342C26.1149 25.8209 25.635 25.509 25.2142 25.0988C24.7934 24.6885 24.4729 24.2142 24.2526 23.676C24.0324 23.1344 23.9223 22.5534 23.9223 21.9331C23.9223 21.3358 24.034 20.7663 24.2576 20.2248C24.4811 19.6832 24.8 19.2073 25.2142 18.797C25.6383 18.3802 26.1281 18.0618 26.6836 17.8419C27.2392 17.6187 27.8276 17.5071 28.449 17.5071C29.1459 17.5071 29.7918 17.6499 30.3868 17.9354C30.9851 18.221 31.4864 18.6263 31.8907 19.1515C32.1373 19.4731 32.3247 19.8227 32.4529 20.2001C32.5843 20.5776 32.6501 20.9682 32.6501 21.3719C32.6501 22.2351 32.3887 22.9162 31.8661 23.415C31.3434 23.9139 30.6218 24.1732 29.7014 24.1929L29.7015 23.4347Z" fill="#00B8FF"/>
<path d="M34.3259 16.9468H35.2333V24.6072H34.3259V16.9468Z" fill="#00B8FF"/>
<path d="M37.1256 19.0888H38.0329V24.6028H37.1256V19.0888ZM37.1256 16.9422H38.0329V18.0893H37.1256V16.9422Z" fill="#00B8FF"/>
<path d="M44.5161 21.275V24.6031H43.6089V21.3045C43.6089 20.7826 43.507 20.392 43.3031 20.1327C43.0993 19.8735 42.7936 19.7438 42.386 19.7438C41.8962 19.7438 41.5099 19.8997 41.2272 20.2115C40.9445 20.5233 40.8031 20.9484 40.8031 21.4867V24.6031H39.8909V19.0891H40.8031V19.9457C41.0201 19.6142 41.2749 19.3664 41.5674 19.2023C41.8633 19.0382 42.2035 18.9561 42.5881 18.9561C43.2226 18.9561 43.7025 19.1531 44.028 19.5469C44.3534 19.9375 44.5161 20.5135 44.5161 21.275Z" fill="#00B8FF"/>
<path d="M46.2432 22.4294V19.0915H47.1505V22.395C47.1505 22.9169 47.2524 23.3091 47.4562 23.5716C47.66 23.8309 47.9658 23.9606 48.3734 23.9606C48.8632 23.9606 49.2495 23.8047 49.5321 23.4929C49.8181 23.1811 49.9611 22.756 49.9611 22.2177V19.0915H50.8684V24.6055H49.9611V23.7587C49.7409 24.0935 49.4845 24.3429 49.1919 24.5071C48.9026 24.6679 48.5657 24.7483 48.181 24.7483C47.5466 24.7483 47.065 24.5514 46.7362 24.1575C46.4075 23.7636 46.2432 23.1876 46.2432 22.4294Z" fill="#00B8FF"/>
<path d="M57.3388 19.0888L55.3417 21.772L57.4423 24.6028H56.3723L54.7648 22.4366L53.1573 24.6028H52.0873L54.2323 21.7178L52.2698 19.0887H53.3398L54.8043 21.0531L56.2688 19.0887L57.3388 19.0888Z" fill="#00B8FF"/>
<path d="M62.6873 21.8546C62.6873 21.1884 62.5492 20.6665 62.2731 20.2891C62.0002 19.9083 61.6238 19.7179 61.1439 19.7179C60.6639 19.718 60.2859 19.9083 60.0098 20.2891C59.7369 20.6665 59.6005 21.1884 59.6005 21.8546C59.6005 22.5209 59.7369 23.0445 60.0098 23.4251C60.2859 23.8026 60.664 23.9913 61.1439 23.9913C61.6238 23.9913 62.0003 23.8026 62.2731 23.4251C62.5492 23.0444 62.6873 22.5209 62.6873 21.8546ZM59.6005 19.9296C59.7912 19.6014 60.0311 19.3585 60.3204 19.201C60.613 19.0402 60.9614 18.9597 61.3658 18.9597C62.0364 18.9597 62.5804 19.2256 62.9979 19.7573C63.4187 20.289 63.6291 20.9882 63.6291 21.8546C63.6291 22.7211 63.4187 23.4202 62.9979 23.9519C62.5804 24.4836 62.0364 24.7495 61.3658 24.7495C60.9614 24.7495 60.613 24.6707 60.3204 24.5132C60.0311 24.3523 59.7912 24.1078 59.6005 23.7796V24.6067H58.6883V16.9463H59.6005V19.9296Z" fill="#00B8FF"/>
<path d="M67.2731 19.7274C66.7866 19.7274 66.402 19.9178 66.1193 20.2985C65.8366 20.676 65.6952 21.1946 65.6952 21.8543C65.6952 22.514 65.835 23.0342 66.1144 23.415C66.3971 23.7924 66.7834 23.9812 67.2731 23.9812C67.7564 23.9812 68.1393 23.7908 68.4221 23.4101C68.7048 23.0293 68.8461 22.5107 68.8461 21.8543C68.8461 21.2012 68.7048 20.6842 68.4221 20.3035C68.1393 19.9194 67.7564 19.7274 67.2731 19.7274ZM67.2731 18.9594C68.0621 18.9594 68.6818 19.2154 69.1321 19.7274C69.5825 20.2394 69.8076 20.9484 69.8076 21.8543C69.8076 22.7569 69.5825 23.4659 69.1321 23.9812C68.6818 24.4932 68.0621 24.7492 67.2731 24.7492C66.4809 24.7492 65.8596 24.4932 65.4092 23.9812C64.9621 23.4659 64.7386 22.7569 64.7386 21.8543C64.7386 20.9484 64.9622 20.2395 65.4092 19.7274C65.8596 19.2154 66.4809 18.9594 67.2731 18.9594Z" fill="#00B8FF"/>
<path d="M75.5838 19.0888L73.5867 21.772L75.6873 24.6028H74.6173L73.0098 22.4366L71.4023 24.6028H70.3323L72.4772 21.7178L70.5147 19.0887H71.5848L73.0493 21.0531L74.5138 19.0887L75.5838 19.0888Z" fill="#00B8FF"/>
<path d="M77.2026 23.353H78.243V24.6035H77.2026V23.353ZM77.2026 19.3898H78.243V20.6403H77.2026V19.3898Z" fill="#00B8FF"/>
<path d="M86.822 20.5822V21.4586C86.4769 21.7179 86.1564 21.9033 85.8605 22.0149C85.5679 22.1265 85.2622 22.1823 84.9433 22.1823C84.5817 22.1823 84.1609 22.0855 83.681 21.8918C83.6448 21.8787 83.6185 21.8688 83.6021 21.8623C83.5791 21.8525 83.5429 21.8393 83.4936 21.8229C82.984 21.6194 82.5748 21.5176 82.2658 21.5176C81.9765 21.5176 81.6905 21.5816 81.4078 21.7096C81.1251 21.8344 80.8227 22.0329 80.5005 22.3054V21.429C80.8457 21.1697 81.1646 20.9843 81.4572 20.8727C81.753 20.7578 82.0604 20.7004 82.3793 20.7004C82.7409 20.7004 83.1633 20.7989 83.6465 20.9958C83.6794 21.0089 83.7041 21.0188 83.7205 21.0253C83.7468 21.0351 83.7829 21.0483 83.829 21.0647C84.3385 21.2682 84.7478 21.37 85.0568 21.37C85.3395 21.37 85.6189 21.3076 85.895 21.1829C86.1744 21.0582 86.4835 20.8579 86.822 20.5822Z" fill="#00B8FF"/>
<path d="M91.3045 26.0894H90.8114L90.8065 24.6075C90.4613 24.6009 90.1162 24.5615 89.771 24.4893C89.4258 24.4138 89.079 24.3022 88.7306 24.1545V23.2683C89.0659 23.4784 89.4045 23.6376 89.7463 23.7459C90.0915 23.8509 90.4465 23.9051 90.8114 23.9084V21.6633C90.0849 21.5452 89.5557 21.345 89.2236 21.0627C88.8949 20.7804 88.7305 20.3932 88.7306 19.9008C88.7306 19.3658 88.9097 18.944 89.268 18.6355C89.6263 18.327 90.1408 18.1498 90.8114 18.1038V16.9469H91.3045V18.0891C91.6103 18.1022 91.9061 18.135 92.1921 18.1876C92.4781 18.2368 92.7575 18.3057 93.0304 18.3943V19.2559C92.7575 19.1181 92.4764 19.0114 92.1872 18.9359C91.9012 18.8604 91.6069 18.8161 91.3045 18.803V20.9052C92.0508 21.0201 92.5997 21.2252 92.9515 21.5206C93.3032 21.816 93.4791 22.2197 93.4791 22.7318C93.4791 23.2865 93.2917 23.7247 92.917 24.0463C92.5455 24.3647 92.0081 24.5485 91.3046 24.5977L91.3045 26.0894ZM90.8115 20.8166V18.7981C90.4301 18.8408 90.1392 18.9491 89.9387 19.123C89.7381 19.297 89.6379 19.5284 89.6379 19.8172C89.6379 20.0994 89.7299 20.3194 89.914 20.4769C90.1014 20.6345 90.4005 20.7477 90.8115 20.8166ZM91.3046 21.7619V23.8936C91.7221 23.8378 92.036 23.7197 92.2464 23.5392C92.4601 23.3587 92.5669 23.1207 92.5669 22.8253C92.5669 22.5365 92.465 22.3067 92.2612 22.136C92.0607 21.9654 91.7418 21.8406 91.3046 21.7619Z" fill="#00B8FF"/>
<path d="M92.9381 5.81177C92.8573 5.7649 92.7686 5.73104 92.6721 5.71021C92.5782 5.68678 92.4739 5.67504 92.3592 5.67504C91.9523 5.67504 91.6394 5.80785 91.4203 6.07343C91.2038 6.33642 91.0956 6.71528 91.0956 7.21V9.5144H90.3719V5.13996H91.0956V5.81954C91.2469 5.55395 91.4438 5.35736 91.6863 5.22976C91.9288 5.09957 92.2235 5.03449 92.5704 5.03448C92.62 5.03449 92.6747 5.03841 92.7347 5.04622C92.7947 5.05143 92.8612 5.06057 92.9342 5.07354L92.9381 5.81177Z" fill="#00B8FF"/>
<path d="M95.2261 5.64473C94.8402 5.64473 94.535 5.79576 94.3107 6.0978C94.0865 6.39724 93.9743 6.80867 93.9743 7.33202C93.9743 7.85538 94.0851 8.2681 94.3068 8.57013C94.5311 8.86957 94.8375 9.01929 95.2261 9.01929C95.6095 9.01929 95.9133 8.86828 96.1376 8.56623C96.3618 8.26419 96.474 7.85281 96.474 7.33201C96.474 6.81386 96.3618 6.40375 96.1376 6.10171C95.9133 5.79707 95.6095 5.64473 95.2261 5.64473ZM95.2261 5.03546C95.852 5.03547 96.3436 5.23855 96.7009 5.64473C97.0581 6.05092 97.2368 6.61337 97.2368 7.33201C97.2368 8.04809 97.0582 8.6105 96.7009 9.01929C96.3436 9.42549 95.852 9.62857 95.2261 9.62857C94.5976 9.62857 94.1047 9.42547 93.7474 9.01929C93.3927 8.61049 93.2154 8.04804 93.2154 7.33201C93.2154 6.61337 93.3928 6.05091 93.7474 5.64473C94.1047 5.23853 94.5976 5.03546 95.2261 5.03546Z" fill="#00B8FF"/>
<path d="M100.122 5.64473C99.736 5.64473 99.4309 5.79576 99.2066 6.0978C98.9823 6.39724 98.8701 6.80867 98.8701 7.33202C98.8701 7.85538 98.981 8.2681 99.2026 8.57013C99.4269 8.86957 99.7334 9.01929 100.122 9.01929C100.505 9.01929 100.809 8.86828 101.033 8.56623C101.258 8.26419 101.37 7.85281 101.37 7.33201C101.37 6.81386 101.258 6.40375 101.033 6.10171C100.809 5.79707 100.505 5.64473 100.122 5.64473ZM100.122 5.03546C100.748 5.03547 101.239 5.23855 101.597 5.64473C101.954 6.05092 102.133 6.61337 102.133 7.33201C102.133 8.04809 101.954 8.6105 101.597 9.01929C101.239 9.42549 100.748 9.62857 100.122 9.62857C99.4934 9.62857 99.0005 9.42547 98.6432 9.01929C98.2886 8.61049 98.1112 8.04804 98.1112 7.33201C98.1112 6.61337 98.2886 6.05091 98.6432 5.64473C99.0005 5.23853 99.4934 5.03546 100.122 5.03546Z" fill="#00B8FF"/>
<path d="M104.034 3.8958V5.13783H105.516V5.69636H104.034V8.07108C104.034 8.42781 104.082 8.65692 104.178 8.75847C104.278 8.86001 104.477 8.91079 104.777 8.91079H105.516V9.51226H104.777C104.221 9.51226 103.838 9.40942 103.627 9.20371C103.416 8.9954 103.31 8.61787 103.31 8.07103V5.69632H102.782V5.13779H103.31V3.89575L104.034 3.8958Z" fill="#00B8FF"/>
<path d="M108.693 7.41823C108.693 7.79058 108.786 8.0835 108.971 8.29701C109.156 8.50792 109.411 8.61338 109.734 8.61338C110.055 8.61338 110.306 8.50662 110.489 8.29311C110.674 8.0796 110.767 7.78798 110.767 7.4182C110.767 7.05366 110.673 6.76466 110.485 6.55111C110.297 6.33499 110.044 6.22693 109.726 6.22693C109.411 6.22693 109.159 6.33368 108.971 6.54719C108.786 6.76071 108.693 7.0511 108.693 7.41823ZM110.825 8.58598C110.669 8.78647 110.489 8.9349 110.285 9.03124C110.085 9.12498 109.85 9.17185 109.581 9.17185C109.133 9.17185 108.768 9.01041 108.486 8.68753C108.207 8.36206 108.067 7.93893 108.067 7.41818C108.067 6.89743 108.208 6.4743 108.49 6.14883C108.772 5.82336 109.135 5.66062 109.581 5.66062C109.85 5.66062 110.086 5.71008 110.289 5.80903C110.493 5.90537 110.671 6.0525 110.825 6.25039V5.73873H111.385V8.61335C111.765 8.55606 112.063 8.38291 112.277 8.09388C112.493 7.80225 112.601 7.426 112.601 6.96514C112.601 6.68653 112.56 6.42483 112.476 6.18007C112.395 5.93532 112.271 5.70878 112.105 5.50045C111.833 5.15935 111.502 4.89899 111.111 4.71933C110.722 4.53707 110.299 4.44593 109.84 4.44593C109.519 4.44593 109.211 4.48891 108.916 4.57482C108.622 4.65815 108.349 4.78312 108.099 4.94976C107.689 5.21536 107.369 5.56425 107.136 5.99652C106.907 6.42616 106.792 6.89226 106.792 7.39478C106.792 7.80879 106.866 8.19673 107.015 8.5587C107.166 8.92064 107.384 9.23962 107.668 9.51561C107.942 9.78641 108.259 9.99212 108.619 10.1327C108.979 10.2759 109.364 10.3475 109.773 10.3475C110.109 10.3475 110.439 10.2902 110.763 10.1757C111.089 10.0637 111.387 9.90225 111.659 9.69134L112.011 10.1249C111.685 10.3775 111.329 10.5701 110.943 10.7029C110.559 10.8383 110.169 10.906 109.773 10.906C109.291 10.906 108.835 10.8201 108.408 10.6482C107.98 10.479 107.599 10.2316 107.266 9.90612C106.932 9.58064 106.677 9.20438 106.503 8.77737C106.328 8.34774 106.241 7.88684 106.241 7.39473C106.241 6.92084 106.329 6.46908 106.507 6.03946C106.684 5.60983 106.937 5.2323 107.266 4.90678C107.602 4.5761 107.991 4.32355 108.431 4.14904C108.872 3.97199 109.339 3.88346 109.832 3.88345C110.385 3.88346 110.897 3.99673 111.369 4.22326C111.844 4.44979 112.241 4.77136 112.562 5.18796C112.758 5.44314 112.906 5.72045 113.008 6.01988C113.112 6.31932 113.165 6.62916 113.165 6.94947C113.165 7.63431 112.957 8.17456 112.543 8.57038C112.128 8.96617 111.556 9.17185 110.825 9.18747V8.58598Z" fill="#00B8FF"/>
<path d="M114.495 3.43399H115.214V9.51153H114.495V3.43399Z" fill="#00B8FF"/>
<path d="M116.719 5.13871H117.438V9.51317H116.719V5.13871ZM116.719 3.43582H117.438V4.34585H116.719V3.43582Z" fill="#00B8FF"/>
<path d="M122.584 6.8729V9.51321H121.864V6.89635C121.864 6.48234 121.783 6.1725 121.621 5.96675C121.46 5.76106 121.217 5.6582 120.894 5.65819C120.505 5.6582 120.199 5.78188 119.975 6.02924C119.75 6.27661 119.638 6.61382 119.638 7.04083V9.51316H118.914V5.13872H119.638V5.8183C119.81 5.55532 120.012 5.35873 120.244 5.22853C120.479 5.09834 120.749 5.03324 121.054 5.03323C121.558 5.03324 121.938 5.18947 122.196 5.50193C122.455 5.81179 122.584 6.26883 122.584 6.8729Z" fill="#00B8FF"/>
<path d="M123.952 7.78668V5.13858H124.671V7.75932C124.671 8.17333 124.752 8.48448 124.914 8.69278C125.076 8.89849 125.318 9.00134 125.642 9.00134C126.03 9.00134 126.337 8.87766 126.561 8.6303C126.788 8.38293 126.901 8.04574 126.901 7.61872V5.13858H127.621V9.51302H126.901V8.84125C126.726 9.10685 126.523 9.30474 126.291 9.43491C126.061 9.5625 125.794 9.62629 125.489 9.62629C124.986 9.62629 124.604 9.47006 124.343 9.1576C124.082 8.84514 123.952 8.38815 123.952 7.78668Z" fill="#00B8FF"/>
<path d="M132.754 5.1387L131.17 7.26735L132.836 9.51316H131.988L130.712 7.79463L129.437 9.51316H128.588L130.29 7.22436L128.733 5.1387H129.582L130.744 6.69712L131.905 5.1387H132.754Z" fill="#00B8FF"/>
<path d="M136.996 7.32979C136.996 6.80123 136.886 6.38724 136.667 6.08776C136.451 5.78572 136.152 5.63469 135.771 5.63469C135.391 5.63469 135.091 5.78572 134.872 6.08776C134.655 6.3872 134.547 6.80118 134.547 7.32979C134.547 7.85835 134.655 8.27368 134.872 8.57571C135.091 8.87516 135.39 9.02487 135.771 9.02487C136.152 9.02487 136.451 8.87516 136.667 8.57571C136.886 8.27367 136.996 7.85835 136.996 7.32979ZM134.547 5.80262C134.698 5.54224 134.888 5.34955 135.118 5.22458C135.35 5.097 135.626 5.03321 135.947 5.0332C136.479 5.03321 136.911 5.24412 137.242 5.66592C137.576 6.08774 137.743 6.64237 137.743 7.32976C137.743 8.01715 137.576 8.57179 137.242 8.9936C136.911 9.41542 136.479 9.62631 135.947 9.62631C135.626 9.62631 135.35 9.56383 135.118 9.43884C134.888 9.31126 134.698 9.11727 134.547 8.85688V9.51303H133.823V3.43549H134.547V5.80262Z" fill="#00B8FF"/>
<path d="M140.637 5.64473C140.251 5.64473 139.946 5.79576 139.721 6.0978C139.497 6.39724 139.385 6.80867 139.385 7.33202C139.385 7.85538 139.496 8.2681 139.717 8.57013C139.942 8.86957 140.248 9.01929 140.637 9.01929C141.02 9.01929 141.324 8.86828 141.548 8.56623C141.773 8.26419 141.885 7.85281 141.885 7.33201C141.885 6.81386 141.773 6.40375 141.548 6.10171C141.324 5.79707 141.02 5.64473 140.637 5.64473ZM140.637 5.03546C141.263 5.03547 141.754 5.23855 142.112 5.64473C142.469 6.05092 142.647 6.61337 142.647 7.33201C142.647 8.04809 142.469 8.6105 142.112 9.01929C141.754 9.42549 141.263 9.62857 140.637 9.62857C140.008 9.62857 139.515 9.42547 139.158 9.01929C138.803 8.61049 138.626 8.04804 138.626 7.33201C138.626 6.61337 138.803 6.05091 139.158 5.64473C139.515 5.23853 140.008 5.03546 140.637 5.03546Z" fill="#00B8FF"/>
<path d="M147.225 5.1387L145.641 7.26735L147.307 9.51316H146.459L145.183 7.79463L143.908 9.51316H143.059L144.761 7.22436L143.204 5.1387H144.053L145.215 6.69712L146.376 5.1387H147.225Z" fill="#00B8FF"/>
<path d="M148.509 8.5236H149.335V9.51568H148.509V8.5236ZM148.509 5.37946H149.335V6.37152H148.509V5.37946Z" fill="#00B8FF"/>
<path d="M156.141 6.32268V7.01788C155.867 7.22358 155.613 7.3707 155.378 7.45923C155.146 7.54776 154.904 7.59203 154.651 7.59203C154.364 7.59203 154.03 7.51521 153.649 7.36158C153.621 7.35116 153.6 7.34335 153.587 7.33815C153.568 7.33034 153.54 7.31992 153.501 7.3069C153.096 7.14546 152.772 7.06475 152.526 7.06474C152.297 7.06475 152.07 7.11552 151.846 7.21707C151.622 7.31602 151.382 7.47356 151.126 7.68967V6.99443C151.4 6.78873 151.653 6.64161 151.885 6.55308C152.12 6.46195 152.364 6.41638 152.617 6.41638C152.903 6.41638 153.239 6.49448 153.622 6.65071C153.648 6.66113 153.667 6.66895 153.681 6.67416C153.701 6.68197 153.73 6.69239 153.767 6.7054C154.171 6.86685 154.496 6.94756 154.741 6.94756C154.965 6.94756 155.187 6.89808 155.406 6.79914C155.627 6.70019 155.872 6.5414 156.141 6.32268Z" fill="#00B8FF"/>
<path d="M30.2272 1.25275H8.40263C5.14165 1.25275 2.49811 3.4562 2.49811 6.17431C2.49811 8.89242 5.14165 11.0959 8.40263 11.0959H30.2272C33.4882 11.0959 36.1317 8.89242 36.1317 6.17431C36.1317 3.4562 33.4882 1.25275 30.2272 1.25275Z" fill="url(#paint1_linear_88_346)"/>
<path d="M13.1714 6.07866C13.1714 8.30555 11.3633 10.1108 9.13296 10.1108C6.90257 10.1108 5.09451 8.30555 5.09451 6.07866C5.09451 3.85177 6.90257 2.04654 9.13296 2.04654C11.3633 2.04654 13.1714 3.85177 13.1714 6.07866Z" fill="#477381"/>
<path d="M22.9258 6.07866C22.9258 8.30555 21.1177 10.1108 18.8873 10.1108C16.6569 10.1108 14.8489 8.30555 14.8489 6.07866C14.8489 3.85177 16.6569 2.04654 18.8873 2.04654C21.1177 2.04654 22.9258 3.85177 22.9258 6.07866Z" fill="#477381"/>
<path d="M32.68 6.07866C32.68 8.30555 30.872 10.1108 28.6416 10.1108C26.4112 10.1108 24.6031 8.30555 24.6031 6.07866C24.6031 3.85177 26.4112 2.04654 28.6416 2.04654C30.872 2.04654 32.68 3.85177 32.68 6.07866Z" fill="#477381"/>
<path d="M13.1714 6.07866C13.1714 8.30555 11.3633 10.1108 9.13296 10.1108C6.90257 10.1108 5.09451 8.30555 5.09451 6.07866C5.09451 3.85177 6.90257 2.04654 9.13296 2.04654C11.3633 2.04654 13.1714 3.85177 13.1714 6.07866Z" fill="#477381"/>
<path d="M22.4863 6.07811C22.4863 8.06274 20.8749 9.67159 18.8872 9.67159C16.8994 9.67159 15.2881 8.06274 15.2881 6.07811C15.2881 4.09349 16.8994 2.48465 18.8872 2.48465C20.8749 2.48465 22.4863 4.09349 22.4863 6.07811Z" fill="url(#paint2_linear_88_346)"/>
<path d="M32.2405 6.07898C32.2405 7.96671 30.6292 9.49702 28.6414 9.49702C26.6537 9.49702 25.0423 7.96671 25.0423 6.07898C25.0423 4.19124 26.6537 2.66095 28.6414 2.66095C30.6292 2.66095 32.2405 4.19124 32.2405 6.07898Z" fill="url(#paint3_linear_88_346)"/>
<path d="M12.7319 6.07937C12.7319 8.01557 11.1206 9.58515 9.13282 9.58515C7.14508 9.58515 5.53372 8.01557 5.53372 6.07937C5.53372 4.14318 7.14508 2.57361 9.13282 2.57361C11.1206 2.57361 12.7319 4.14318 12.7319 6.07937Z" fill="url(#paint4_linear_88_346)"/>
<path d="M11.3283 4.96137C11.3283 5.40558 11.0927 5.83159 10.6732 6.1457C10.2537 6.4598 9.68484 6.63626 9.09163 6.63626C8.49843 6.63626 7.92952 6.4598 7.51006 6.1457C7.0906 5.83159 6.85495 5.40558 6.85495 4.96137C6.85495 4.51716 7.0906 4.09114 7.51006 3.77703C7.92952 3.46293 8.49843 3.28647 9.09163 3.28647C9.68484 3.28647 10.2537 3.46293 10.6732 3.77703C11.0927 4.09114 11.3283 4.51716 11.3283 4.96137Z" fill="url(#paint5_linear_88_346)"/>
<path d="M10.6837 4.3197L9.28191 6.20315L10.7564 8.19029H10.0053L8.87691 6.66971L7.74851 8.19029H6.99741L8.50306 6.16517L7.12548 4.31975H7.87659L8.90461 5.69866L9.93264 4.31975L10.6837 4.3197Z" fill="#00B8FF"/>
<path d="M31.0538 4.96137C31.0538 5.40558 30.8182 5.83159 30.3987 6.1457C29.9793 6.4598 29.4104 6.63626 28.8172 6.63626C28.224 6.63626 27.655 6.4598 27.2356 6.1457C26.8161 5.83159 26.5805 5.40558 26.5805 4.96137C26.5805 4.51716 26.8161 4.09114 27.2356 3.77703C27.655 3.46293 28.224 3.28647 28.8172 3.28647C29.4104 3.28647 29.9793 3.46293 30.3987 3.77703C30.8182 4.09114 31.0538 4.51716 31.0538 4.96137Z" fill="url(#paint6_linear_88_346)"/>
<path d="M21.2567 4.96137C21.2567 5.40558 21.0211 5.83159 20.6016 6.1457C20.1822 6.4598 19.6133 6.63626 19.0201 6.63626C18.4269 6.63626 17.858 6.4598 17.4385 6.1457C17.019 5.83159 16.7834 5.40558 16.7834 4.96137C16.7834 4.51716 17.019 4.09114 17.4385 3.77703C17.858 3.46293 18.4269 3.28647 19.0201 3.28647C19.6133 3.28647 20.1822 3.46293 20.6016 3.77703C21.0211 4.09114 21.2567 4.51716 21.2567 4.96137Z" fill="url(#paint7_linear_88_346)"/>
<path d="M16.9838 7.79182L16.081 7.78738L18.4102 4.34291L19.2337 4.34688L21.5176 7.81491L20.6148 7.81047L18.8225 5.02435L16.9838 7.79182Z" fill="#00B8FF"/>
<path d="M30.5764 4.66298L31.4789 4.64058L29.2534 8.15272L28.4302 8.1732L26.0439 4.77455L26.9464 4.75214L28.821 7.48376L30.5764 4.66298Z" fill="#00B8FF"/>
</g>
</g>
<defs>
<filter id="filter0_b_88_346" x="-30.7" y="-30.7" width="313.4" height="163.4" filterUnits="userSpaceOnUse" color-interpolation-filters="sRGB">
<feFlood flood-opacity="0" result="BackgroundImageFix"/>
<feGaussianBlur in="BackgroundImageFix" stdDeviation="15.35"/>
<feComposite in2="SourceAlpha" operator="in" result="effect1_backgroundBlur_88_346"/>
<feBlend mode="normal" in="SourceGraphic" in2="effect1_backgroundBlur_88_346" result="shape"/>
</filter>
<linearGradient id="paint0_linear_88_346" x1="125.999" y1="0" x2="125.999" y2="8.69494" gradientUnits="userSpaceOnUse">
<stop stop-color="#2B3C3D"/>
<stop offset="1" stop-color="#485356"/>
</linearGradient>
<linearGradient id="paint1_linear_88_346" x1="21.1244" y1="10.0502" x2="19.3201" y2="1.25038" gradientUnits="userSpaceOnUse">
<stop stop-color="#2B3D3C"/>
<stop offset="1" stop-color="#485656"/>
</linearGradient>
<linearGradient id="paint2_linear_88_346" x1="15.2881" y1="6.07812" x2="22.4863" y2="6.07812" gradientUnits="userSpaceOnUse">
<stop stop-color="#2B3A3D"/>
<stop offset="1" stop-color="#485356"/>
</linearGradient>
<linearGradient id="paint3_linear_88_346" x1="25.0423" y1="6.07898" x2="32.2405" y2="6.07898" gradientUnits="userSpaceOnUse">
<stop stop-color="#2B3A3D"/>
<stop offset="1" stop-color="#485356"/>
</linearGradient>
<linearGradient id="paint4_linear_88_346" x1="5.53372" y1="6.07938" x2="12.7319" y2="6.07938" gradientUnits="userSpaceOnUse">
<stop stop-color="#2B3A3D"/>
<stop offset="1" stop-color="#485356"/>
</linearGradient>
<linearGradient id="paint5_linear_88_346" x1="8.31504" y1="3.56566" x2="8.31504" y2="6.63611" gradientUnits="userSpaceOnUse">
<stop stop-color="#C7C7C7" stop-opacity="0.71212"/>
<stop offset="1" stop-color="#EEEEEE" stop-opacity="0"/>
</linearGradient>
<linearGradient id="paint6_linear_88_346" x1="28.0406" y1="3.56566" x2="28.0406" y2="6.63611" gradientUnits="userSpaceOnUse">
<stop stop-color="#C7C7C7" stop-opacity="0.71212"/>
<stop offset="1" stop-color="#EEEEEE" stop-opacity="0"/>
</linearGradient>
<linearGradient id="paint7_linear_88_346" x1="18.2435" y1="3.56566" x2="18.2435" y2="6.63611" gradientUnits="userSpaceOnUse">
<stop stop-color="#C7C7C7" stop-opacity="0.71212"/>
<stop offset="1" stop-color="#EEEEEE" stop-opacity="0"/>
</linearGradient>
<clipPath id="clip0_88_346">
<rect width="252" height="102" rx="5" fill="white"/>
</clipPath>
</defs>
</svg>
