<svg width="211" height="68" viewBox="0 0 211 68" fill="none" xmlns="http://www.w3.org/2000/svg">
<path d="M33.6363 0.144638L24.1312 9.75232L67.0857 34.0004L33.6363 0.144638ZM67.0857 34.0004L24.1342 58.2504L33.6363 67.8554L67.0857 34.0004ZM24.1309 9.7526L0.142944 33.9993L24.1309 58.2471V9.7526Z" fill="#00B8FF" fill-opacity="0.980392"/>
<path d="M67.0857 34.0004L24.1309 58.2522V9.75218L67.0857 34.0004Z" fill="white" fill-opacity="0.980392"/>
<path d="M127.086 43.8683V47.226H106.586V20.774H127.054V24.2136H110.472V31.9117H127.07V35.2694H110.472V43.8683H127.086Z" fill="white" fill-opacity="0.980392"/>
<path d="M136.786 20.774V43.8683H152.656V47.226H132.9V20.774H136.786Z" fill="white" fill-opacity="0.980392"/>
<path d="M147.555 20.774H171.197V24.2136H161.319V47.226H157.433V24.2136H147.555V20.774Z" fill="white" fill-opacity="0.980392"/>
<path d="M178.645 20.774H174.759V47.226H178.645V20.774Z" fill="white" fill-opacity="0.980392"/>
<path d="M202.854 47.226L194.92 36.5797L187.066 47.226H182.208L192.572 33.7134L182.694 20.774H187.714L195.163 31.0109L202.854 20.774H207.631L197.592 33.7134L207.955 47.226H202.854Z" fill="white" fill-opacity="0.980392"/>
<path d="M78.4908 20.774H91.7692C99.623 20.774 103.185 25.9334 103.185 33.6315C103.185 41.002 100.028 47.226 92.0122 47.226H78.4908V20.774ZM91.8502 43.8683C98.2465 43.8683 99.3801 38.4633 99.3801 33.7134C99.3801 29.0454 97.8417 24.2136 91.1215 24.2136H82.3772V43.8683H91.8502Z" fill="white" fill-opacity="0.980392"/>
</svg>
