<svg width="95" height="30" viewBox="0 0 95 30" fill="none" xmlns="http://www.w3.org/2000/svg">
<path d="M15.1443 0.0638123L10.8648 4.30249L30.2045 15.0002L15.1443 0.0638123ZM30.2045 15.0002L10.8661 25.6987L15.1443 29.9362L30.2045 15.0002ZM10.8647 4.30262L0.0643921 14.9997L10.8647 25.6973V4.30262Z" fill="url(#paint0_linear_10_3)" fill-opacity="0.980392"/>
<path d="M30.2045 15.0002L10.8646 25.6995V4.30243L30.2045 15.0002Z" fill="white" fill-opacity="0.980392"/>
<path d="M57.2188 19.3537V20.835H47.989V9.16501H57.2043V10.6825H49.7387V14.0787H57.2118V15.56H49.7387V19.3537H57.2188Z" fill="url(#paint1_linear_10_3)" fill-opacity="0.980392"/>
<path d="M61.5862 9.16501V19.3537H68.7312V20.835H59.8364V9.16501H61.5862Z" fill="url(#paint2_linear_10_3)" fill-opacity="0.980392"/>
<path d="M66.4346 9.16501H77.0791V10.6825H72.6317V20.835H70.8819V10.6825H66.4346V9.16501Z" fill="url(#paint3_linear_10_3)" fill-opacity="0.980392"/>
<path d="M80.4328 9.16501H78.683V20.835H80.4328V9.16501Z" fill="url(#paint4_linear_10_3)" fill-opacity="0.980392"/>
<path d="M91.3325 20.835L87.7601 16.1381L84.224 20.835H82.0368L86.7029 14.8735L82.2555 9.16501H84.5157L87.8694 13.6813L91.3325 9.16501H93.4833L88.963 14.8735L93.6291 20.835H91.3325Z" fill="url(#paint5_linear_10_3)" fill-opacity="0.980392"/>
<path d="M35.3395 9.16504H41.3179C44.8539 9.16504 46.4579 11.4412 46.4579 14.8374C46.4579 18.0891 45.0362 20.835 41.4273 20.835H35.3395V9.16504ZM41.3544 19.3537C44.2342 19.3537 44.7446 16.9691 44.7446 14.8736C44.7446 12.8142 44.0519 10.6825 41.0263 10.6825H37.0893V19.3537H41.3544Z" fill="url(#paint6_linear_10_3)" fill-opacity="0.980392"/>
<defs>
<linearGradient id="paint0_linear_10_3" x1="15.1344" y1="0.0638123" x2="15.1344" y2="29.9362" gradientUnits="userSpaceOnUse">
<stop stop-color="#00B8FF"/>
<stop offset="1" stop-color="#006E99"/>
</linearGradient>
<linearGradient id="paint1_linear_10_3" x1="52.6039" y1="9.16501" x2="52.6039" y2="20.835" gradientUnits="userSpaceOnUse">
<stop stop-color="#00A9EA"/>
<stop offset="1" stop-color="#00394F"/>
</linearGradient>
<linearGradient id="paint2_linear_10_3" x1="64.2838" y1="9.16501" x2="64.2838" y2="20.835" gradientUnits="userSpaceOnUse">
<stop stop-color="#00A9EA"/>
<stop offset="1" stop-color="#00394F"/>
</linearGradient>
<linearGradient id="paint3_linear_10_3" x1="71.7568" y1="9.16501" x2="71.7568" y2="20.835" gradientUnits="userSpaceOnUse">
<stop stop-color="#00A9EA"/>
<stop offset="1" stop-color="#00394F"/>
</linearGradient>
<linearGradient id="paint4_linear_10_3" x1="79.5579" y1="9.16501" x2="79.5579" y2="20.835" gradientUnits="userSpaceOnUse">
<stop stop-color="#00A9EA"/>
<stop offset="1" stop-color="#00394F"/>
</linearGradient>
<linearGradient id="paint5_linear_10_3" x1="87.833" y1="9.16501" x2="87.833" y2="20.835" gradientUnits="userSpaceOnUse">
<stop stop-color="#00A9EA"/>
<stop offset="1" stop-color="#00394F"/>
</linearGradient>
<linearGradient id="paint6_linear_10_3" x1="40.8987" y1="9.16504" x2="40.8987" y2="20.835" gradientUnits="userSpaceOnUse">
<stop stop-color="#00A9EA"/>
<stop offset="1" stop-color="#00394F"/>
</linearGradient>
</defs>
</svg>
