<svg width="95" height="30" viewBox="0 0 95 30" fill="none" xmlns="http://www.w3.org/2000/svg">
<path d="M15.1444 0.0638123L10.8649 4.30249L30.2046 15.0002L15.1444 0.0638123ZM30.2046 15.0002L10.8662 25.6987L15.1444 29.9362L30.2046 15.0002ZM10.8647 4.30262L0.0644531 14.9997L10.8647 25.6973V4.30262Z" fill="white" fill-opacity="0.980392"/>
<path d="M30.2046 15.0002L10.8647 25.6995V4.30243L30.2046 15.0002Z" fill="#00A9EA"/>
<path d="M57.2189 19.3537V20.835H47.989V9.16501H57.2044V10.6825H49.7388V14.0787H57.2118V15.56H49.7388V19.3537H57.2189Z" fill="white" fill-opacity="0.980392"/>
<path d="M61.5865 9.16501V19.3537H68.7314V20.835H59.8367V9.16501H61.5865Z" fill="white" fill-opacity="0.980392"/>
<path d="M66.4348 9.16501H77.0793V10.6825H72.632V20.835H70.8822V10.6825H66.4348V9.16501Z" fill="white" fill-opacity="0.980392"/>
<path d="M80.4329 9.16501H78.6831V20.835H80.4329V9.16501Z" fill="white" fill-opacity="0.980392"/>
<path d="M91.3326 20.835L87.7601 16.1381L84.2241 20.835H82.0369L86.7029 14.8735L82.2556 9.16501H84.5157L87.8695 13.6813L91.3326 9.16501H93.4834L88.9631 14.8735L93.6292 20.835H91.3326Z" fill="white" fill-opacity="0.980392"/>
<path d="M35.3396 9.16504H41.318C44.8541 9.16504 46.458 11.4412 46.458 14.8374C46.458 18.0891 45.0363 20.835 41.4274 20.835H35.3396V9.16504ZM41.3545 19.3537C44.2343 19.3537 44.7447 16.9691 44.7447 14.8736C44.7447 12.8142 44.0521 10.6825 41.0264 10.6825H37.0894V19.3537H41.3545Z" fill="white" fill-opacity="0.980392"/>
</svg>
