<svg width="57" height="19" viewBox="0 0 57 19" fill="none" xmlns="http://www.w3.org/2000/svg">
<g clip-path="url(#clip0_73_3343)">
<path d="M9.08654 0.0404053L6.51882 2.7249L18.1226 9.50011L9.08654 0.0404053ZM18.1226 9.50011L6.51962 16.2758L9.08654 18.9596L18.1226 9.50011ZM6.51874 2.72498L0.0385742 9.49979L6.51874 16.2749V2.72498Z" fill="#00B8FF" fill-opacity="0.980392"/>
<path d="M18.1227 9.50008L6.5188 16.2763V2.72485L18.1227 9.50008Z" fill="white" fill-opacity="0.980392"/>
<path d="M34.3311 12.2573V13.1954H28.7932V5.80444H34.3224V6.7655H29.8431V8.91644H34.3269V9.85462H29.8431V12.2573H34.3311Z" fill="#00A9EA" fill-opacity="0.980392"/>
<path d="M36.9517 5.80444V12.2573H41.2387V13.1954H35.9019V5.80444H36.9517Z" fill="#00A9EA" fill-opacity="0.980392"/>
<path d="M39.8606 5.80444H46.2473V6.7655H43.5789V13.1954H42.529V6.7655H39.8606V5.80444Z" fill="#00A9EA" fill-opacity="0.980392"/>
<path d="M48.2596 5.80444H47.2097V13.1954H48.2596V5.80444Z" fill="#00A9EA" fill-opacity="0.980392"/>
<path d="M54.7994 13.1954L52.6559 10.2207L50.5343 13.1954H49.2219L52.0216 9.41985L49.3532 5.80444H50.7092L52.7215 8.66474L54.7994 5.80444H56.0898L53.3777 9.41985L56.1773 13.1954H54.7994Z" fill="#00A9EA" fill-opacity="0.980392"/>
<path d="M21.2036 5.80444H24.7907C26.9123 5.80444 27.8747 7.24603 27.8747 9.39697C27.8747 11.4564 27.0216 13.1954 24.8563 13.1954H21.2036V5.80444ZM24.8125 12.2573C26.5404 12.2573 26.8467 10.747 26.8467 9.41985C26.8467 8.11556 26.4311 6.7655 24.6157 6.7655H22.2535V12.2573H24.8125Z" fill="#00A9EA" fill-opacity="0.980392"/>
</g>
<defs>
<clipPath id="clip0_73_3343">
<rect width="57" height="19" fill="white"/>
</clipPath>
</defs>
</svg>
