<svg width="1280" height="287" viewBox="0 0 1280 287" fill="none" xmlns="http://www.w3.org/2000/svg">
<path opacity="0.34" d="M1273.85 206.971C1273.85 206.971 1244.62 182.462 1173.06 187.618C1104.29 192.586 1081.98 225.59 1081.98 225.59C1081.98 225.59 1037.7 212.083 992.008 217.195C992.008 217.195 963.185 201.859 930.166 215.366C930.166 215.366 878.856 198.202 853.565 225.59C853.565 225.59 824.046 216.821 800.149 225.59C800.149 225.59 756.566 217.195 729.17 232.157C729.17 232.157 678.572 231.797 665.205 254.434H1273.85V206.971Z" fill="url(#paint0_linear_37_140)"/>
<path d="M574.932 187.805C573.267 187.661 571.942 186.538 571.756 185.112L571.246 181.037L570.736 185.112C570.567 186.523 569.242 187.646 567.56 187.805L562.754 188.237L567.56 188.669C569.225 188.813 570.55 189.936 570.736 191.362L571.246 195.437L571.756 191.362C571.925 189.95 573.25 188.827 574.932 188.669L579.738 188.237L574.932 187.805Z" fill="#FCF1E3"/>
<path d="M352.432 243.706C350.768 243.562 349.443 242.438 349.256 241.013L348.747 236.938L348.237 241.013C348.067 242.424 346.742 243.547 345.061 243.706L340.254 244.138L345.061 244.57C346.725 244.714 348.05 245.837 348.237 247.262L348.747 251.338L349.256 247.262C349.426 245.851 350.751 244.728 352.432 244.57L357.239 244.138L352.432 243.706Z" fill="#FCF1E3"/>
<path d="M36.5171 160.877C34.8526 160.733 33.5278 159.61 33.3409 158.184L32.8314 154.109L32.3219 158.184C32.152 159.595 30.8272 160.718 29.1457 160.877L24.3391 161.309L29.1457 161.741C30.8102 161.885 32.135 163.008 32.3219 164.434L32.8314 168.509L33.3409 164.434C33.5108 163.022 34.8356 161.899 36.5171 161.741L41.3237 161.309L36.5171 160.877Z" fill="#FCF1E3"/>
<path d="M993.536 165.859C992.415 165.758 991.515 165.01 991.396 164.045L991.057 161.294L990.717 164.045C990.598 164.995 989.715 165.758 988.577 165.859L985.333 166.147L988.577 166.435C989.698 166.536 990.598 167.285 990.717 168.25L991.057 171L991.396 168.25C991.515 167.299 992.398 166.536 993.536 166.435L996.78 166.147L993.536 165.859Z" fill="#FCF1E3"/>
<path d="M870.227 227.318C868.529 227.174 867.204 226.037 867.017 224.597L866.508 220.464L865.998 224.597C865.828 226.037 864.487 227.16 862.788 227.318L857.914 227.75L862.788 228.182C864.487 228.326 865.811 229.464 865.998 230.904L866.508 235.037L867.017 230.904C867.187 229.464 868.529 228.341 870.227 228.182L875.102 227.75L870.227 227.318Z" fill="#FCF1E3"/>
<path d="M485.847 273.758C484.726 273.658 483.826 272.909 483.707 271.944L483.367 269.194L483.027 271.944C482.909 272.894 482.025 273.658 480.887 273.758L477.643 274.046L480.887 274.334C482.008 274.435 482.909 275.184 483.027 276.149L483.367 278.899L483.707 276.149C483.826 275.198 484.709 274.435 485.847 274.334L489.091 274.046L485.847 273.758Z" fill="#FCF1E3"/>
<path d="M180.819 264.053C179.698 263.952 178.798 263.203 178.679 262.238L178.339 259.488L178 262.238C177.881 263.189 176.997 263.952 175.859 264.053L172.615 264.341L175.859 264.629C176.98 264.73 177.881 265.478 178 266.443L178.339 269.194L178.679 266.443C178.798 265.493 179.681 264.73 180.819 264.629L184.063 264.341L180.819 264.053Z" fill="#FCF1E3"/>
<path d="M1216.55 273.758C1215.42 273.658 1214.52 272.909 1214.41 271.944L1214.07 269.194L1213.73 271.944C1213.61 272.894 1212.72 273.658 1211.59 273.758L1208.34 274.046L1211.59 274.334C1212.71 274.435 1213.61 275.184 1213.73 276.149L1214.07 278.899L1214.41 276.149C1214.52 275.198 1215.41 274.435 1216.55 274.334L1219.79 274.046L1216.55 273.758Z" fill="#FCF1E3"/>
<path d="M689.103 161.006C687.982 160.906 687.082 160.157 686.963 159.192L686.623 156.442L686.283 159.192C686.164 160.142 685.281 160.906 684.143 161.006L680.899 161.294L684.143 161.582C685.264 161.683 686.164 162.432 686.283 163.397L686.623 166.147L686.963 163.397C687.082 162.446 687.965 161.683 689.103 161.582L692.347 161.294L689.103 161.006Z" fill="#FCF1E3"/>
<path d="M1237.86 175.939C1236.26 175.795 1235.01 174.73 1234.85 173.39L1234.38 169.517L1233.9 173.39C1233.73 174.744 1232.48 175.81 1230.9 175.939L1226.33 176.342L1230.9 176.746C1232.49 176.89 1233.75 177.955 1233.9 179.294L1234.38 183.168L1234.85 179.294C1235.02 177.941 1236.28 176.875 1237.86 176.746L1242.43 176.342L1237.86 175.939Z" fill="#FCF1E3"/>
<path d="M1127.05 278.525C1125.2 278.366 1123.74 277.114 1123.54 275.544L1122.98 271.022L1122.42 275.544C1122.23 277.114 1120.75 278.352 1118.9 278.525L1113.57 279L1118.9 279.475C1120.75 279.634 1122.21 280.886 1122.42 282.456L1122.98 286.978L1123.54 282.456C1123.72 280.886 1125.2 279.648 1127.05 279.475L1132.39 279L1127.05 278.525Z" fill="#FCF1E3"/>
<path d="M778.34 274.061C777.219 273.96 776.319 273.211 776.2 272.246L775.861 269.496L775.521 272.246C775.402 273.197 774.519 273.96 773.381 274.061L770.137 274.349L773.381 274.637C774.502 274.738 775.402 275.486 775.521 276.451L775.861 279.202L776.2 276.451C776.319 275.501 777.202 274.738 778.34 274.637L781.584 274.349L778.34 274.061Z" fill="#FCF1E3"/>
<path d="M415.819 190.282C414.698 190.181 413.798 189.432 413.679 188.467L413.339 185.717L413 188.467C412.881 189.418 411.998 190.181 410.86 190.282L407.615 190.57L410.86 190.858C411.981 190.958 412.881 191.707 413 192.672L413.339 195.422L413.679 192.672C413.798 191.722 414.681 190.958 415.819 190.858L419.063 190.57L415.819 190.282Z" fill="#FCF1E3"/>
<path d="M644.212 268.906C643.091 268.805 642.191 268.056 642.072 267.091L641.732 264.341L641.393 267.091C641.274 268.042 640.391 268.805 639.253 268.906L636.009 269.194L639.253 269.482C640.374 269.582 641.274 270.331 641.393 271.296L641.732 274.046L642.072 271.296C642.191 270.346 643.074 269.582 644.212 269.482L647.456 269.194L644.212 268.906Z" fill="#E2C9AF"/>
<path d="M524.929 225.029C523.808 224.928 522.907 224.179 522.789 223.214L522.449 220.464L522.109 223.214C521.99 224.165 521.107 224.928 519.969 225.029L516.725 225.317L519.969 225.605C521.09 225.706 521.99 226.454 522.109 227.419L522.449 230.17L522.789 227.419C522.907 226.469 523.791 225.706 524.929 225.605L528.173 225.317L524.929 225.029Z" fill="#E2C9AF"/>
<path d="M256.35 165.859C255.229 165.758 254.329 165.01 254.21 164.045L253.87 161.294L253.53 164.045C253.412 164.995 252.528 165.758 251.39 165.859L248.146 166.147L251.39 166.435C252.511 166.536 253.412 167.285 253.53 168.25L253.87 171L254.21 168.25C254.329 167.299 255.212 166.536 256.35 166.435L259.594 166.147L256.35 165.859Z" fill="#E2C9AF"/>
<path d="M491.571 163.267C490.45 163.166 489.55 162.418 489.431 161.453L489.091 158.702L488.751 161.453C488.632 162.403 487.749 163.166 486.611 163.267L483.367 163.555L486.611 163.843C487.732 163.944 488.632 164.693 488.751 165.658L489.091 168.408L489.431 165.658C489.55 164.707 490.433 163.944 491.571 163.843L494.815 163.555L491.571 163.267Z" fill="#E2C9AF"/>
<path d="M109.704 220.19C108.583 220.09 107.683 219.341 107.564 218.376L107.224 215.626L106.885 218.376C106.766 219.326 105.883 220.09 104.745 220.19L101.5 220.478L104.745 220.766C105.866 220.867 106.766 221.616 106.885 222.581L107.224 225.331L107.564 222.581C107.683 221.63 108.566 220.867 109.704 220.766L112.948 220.478L109.704 220.19Z" fill="#E2C9AF"/>
<path d="M1164.16 220.19C1163.04 220.09 1162.14 219.341 1162.02 218.376L1161.68 215.626L1161.35 218.376C1161.23 219.326 1160.34 220.09 1159.2 220.19L1155.96 220.478L1159.2 220.766C1160.33 220.867 1161.23 221.616 1161.35 222.581L1161.68 225.331L1162.02 222.581C1162.14 221.63 1163.03 220.867 1164.16 220.766L1167.41 220.478L1164.16 220.19Z" fill="#E2C9AF"/>
<path opacity="0.34" d="M336.433 206.87C336.433 206.87 351.158 194.515 382.852 200.045C382.852 200.045 395.879 193.291 412.286 198.619C412.286 198.619 514.755 160.056 591.186 216.302C591.186 216.302 612.706 208.498 632.51 216.302C632.51 216.302 650.055 214.358 659.685 222.811H265.08C265.08 222.811 278.107 204.278 336.416 206.885L336.433 206.87Z" fill="url(#paint1_linear_37_140)"/>
<path opacity="0.34" d="M0 249.638C0 249.638 26.8018 237.24 54.1981 249.638C54.1981 249.638 70.0279 248.314 79.7601 255.83C79.7601 255.83 149.771 236.347 224.656 255.83C224.656 255.83 256.927 249.638 280.672 271.325C280.672 271.325 295.585 267.667 307.457 275.314C307.457 275.314 329.979 273.989 347.643 284.17H0V249.638Z" fill="url(#paint2_linear_37_140)"/>
<path opacity="0.34" d="M6.14844 53.7408C6.14844 53.7408 35.3791 29.232 106.936 34.3872C175.707 39.3552 198.024 72.36 198.024 72.36C198.024 72.36 242.304 58.8528 287.992 63.9648C287.992 63.9648 316.815 48.6288 349.834 62.136C349.834 62.136 401.144 44.9712 426.435 72.36C426.435 72.36 455.954 63.5904 479.851 72.36C479.851 72.36 523.434 63.9648 550.83 78.9264C550.83 78.9264 601.428 78.5664 614.795 101.203H6.14844V53.7408Z" fill="url(#paint3_linear_37_140)"/>
<path d="M705.068 34.5744C706.733 34.4304 708.058 33.3072 708.244 31.8816L708.754 27.8064L709.264 31.8816C709.433 33.2928 710.758 34.416 712.44 34.5744L717.246 35.0064L712.44 35.4384C710.775 35.5824 709.45 36.7056 709.264 38.1312L708.754 42.2064L708.244 38.1312C708.075 36.72 706.75 35.5968 705.068 35.4384L700.262 35.0064L705.068 34.5744Z" fill="#FCF1E3"/>
<path d="M927.568 90.4752C929.232 90.3312 930.557 89.208 930.744 87.7824L931.253 83.7072L931.763 87.7824C931.933 89.1936 933.258 90.3168 934.939 90.4752L939.746 90.9072L934.939 91.3392C933.275 91.4832 931.95 92.6064 931.763 94.032L931.253 98.1072L930.744 94.032C930.574 92.6208 929.249 91.4976 927.568 91.3392L922.761 90.9072L927.568 90.4752Z" fill="#FCF1E3"/>
<path d="M1243.48 7.64642C1245.15 7.50242 1246.47 6.37922 1246.66 4.95362L1247.17 0.878418L1247.68 4.95362C1247.85 6.36482 1249.17 7.48802 1250.85 7.64642L1255.66 8.07842L1250.85 8.51042C1249.19 8.65442 1247.86 9.77762 1247.68 11.2032L1247.17 15.2784L1246.66 11.2032C1246.49 9.79202 1245.16 8.66882 1243.48 8.51042L1238.68 8.07842L1243.48 7.64642Z" fill="#FCF1E3"/>
<path d="M286.464 12.6288C287.585 12.528 288.485 11.7792 288.604 10.8144L288.943 8.06403L289.283 10.8144C289.402 11.7648 290.285 12.528 291.423 12.6288L294.667 12.9168L291.423 13.2048C290.302 13.3056 289.402 14.0544 289.283 15.0192L288.943 17.7696L288.604 15.0192C288.485 14.0688 287.602 13.3056 286.464 13.2048L283.22 12.9168L286.464 12.6288Z" fill="#FCF1E3"/>
<path d="M409.773 74.088C411.471 73.944 412.796 72.8064 412.983 71.3664L413.492 67.2336L414.002 71.3664C414.172 72.8064 415.513 73.9296 417.212 74.088L422.086 74.52L417.212 74.952C415.513 75.096 414.189 76.2336 414.002 77.6736L413.492 81.8064L412.983 77.6736C412.813 76.2336 411.471 75.1104 409.773 74.952L404.898 74.52L409.773 74.088Z" fill="#FCF1E3"/>
<path d="M794.153 120.528C795.274 120.427 796.174 119.678 796.293 118.714L796.633 115.963L796.972 118.714C797.091 119.664 797.975 120.427 799.113 120.528L802.357 120.816L799.113 121.104C797.992 121.205 797.091 121.954 796.972 122.918L796.633 125.669L796.293 122.918C796.174 121.968 795.291 121.205 794.153 121.104L790.909 120.816L794.153 120.528Z" fill="#FCF1E3"/>
<path d="M1099.18 110.822C1100.3 110.722 1101.2 109.973 1101.32 109.008L1101.66 106.258L1102 109.008C1102.12 109.958 1103 110.722 1104.14 110.822L1107.38 111.11L1104.14 111.398C1103.02 111.499 1102.12 112.248 1102 113.213L1101.66 115.963L1101.32 113.213C1101.2 112.262 1100.32 111.499 1099.18 111.398L1095.94 111.11L1099.18 110.822Z" fill="#FCF1E3"/>
<path d="M63.4548 120.528C64.5758 120.427 65.4759 119.678 65.5948 118.714L65.9345 115.963L66.2742 118.714C66.3931 119.664 67.2763 120.427 68.4143 120.528L71.6584 120.816L68.4143 121.104C67.2933 121.205 66.3931 121.954 66.2742 122.918L65.9345 125.669L65.5948 122.918C65.4759 121.968 64.5927 121.205 63.4548 121.104L60.2107 120.816L63.4548 120.528Z" fill="#FCF1E3"/>
<path d="M590.897 7.77604C592.018 7.67524 592.918 6.92644 593.037 5.96164L593.377 3.21124L593.717 5.96164C593.836 6.91204 594.719 7.67524 595.857 7.77604L599.101 8.06404L595.857 8.35204C594.736 8.45284 593.836 9.20164 593.717 10.1664L593.377 12.9168L593.037 10.1664C592.918 9.21604 592.035 8.45284 590.897 8.35204L587.653 8.06404L590.897 7.77604Z" fill="#FCF1E3"/>
<path d="M42.139 22.7088C43.7356 22.5648 44.9924 21.4992 45.1453 20.16L45.6209 16.2864L46.0964 20.16C46.2663 21.5136 47.5232 22.5792 49.1027 22.7088L53.6716 23.112L49.1027 23.5152C47.5062 23.6592 46.2493 24.7248 46.0964 26.064L45.6209 29.9376L45.1453 26.064C44.9755 24.7104 43.7186 23.6448 42.139 23.5152L37.5701 23.112L42.139 22.7088Z" fill="#FCF1E3"/>
<path d="M152.947 125.294C154.798 125.136 156.259 123.883 156.463 122.314L157.023 117.792L157.584 122.314C157.771 123.883 159.248 125.122 161.1 125.294L166.433 125.77L161.1 126.245C159.248 126.403 157.788 127.656 157.584 129.226L157.023 133.747L156.463 129.226C156.276 127.656 154.798 126.418 152.947 126.245L147.614 125.77L152.947 125.294Z" fill="#FCF1E3"/>
<path d="M501.66 120.83C502.781 120.73 503.681 119.981 503.8 119.016L504.139 116.266L504.479 119.016C504.598 119.966 505.481 120.73 506.619 120.83L509.863 121.118L506.619 121.406C505.498 121.507 504.598 122.256 504.479 123.221L504.139 125.971L503.8 123.221C503.681 122.27 502.798 121.507 501.66 121.406L498.416 121.118L501.66 120.83Z" fill="#FCF1E3"/>
<path d="M864.181 37.0656C865.302 36.9648 866.202 36.216 866.321 35.2512L866.661 32.5008L867 35.2512C867.119 36.2016 868.002 36.9648 869.14 37.0656L872.384 37.3536L869.14 37.6416C868.019 37.7424 867.119 38.4912 867 39.456L866.661 42.2064L866.321 39.456C866.202 38.5056 865.319 37.7424 864.181 37.6416L860.937 37.3536L864.181 37.0656Z" fill="#FCF1E3"/>
<path d="M635.788 115.675C636.909 115.574 637.809 114.826 637.928 113.861L638.268 111.11L638.607 113.861C638.726 114.811 639.609 115.574 640.747 115.675L643.991 115.963L640.747 116.251C639.626 116.352 638.726 117.101 638.607 118.066L638.268 120.816L637.928 118.066C637.809 117.115 636.926 116.352 635.788 116.251L632.544 115.963L635.788 115.675Z" fill="#E2C9AF"/>
<path d="M755.088 71.8128C756.209 71.712 757.109 70.9632 757.228 69.9984L757.568 67.248L757.908 69.9984C758.027 70.9488 758.91 71.712 760.048 71.8128L763.292 72.1008L760.048 72.3888C758.927 72.4896 758.027 73.2384 757.908 74.2032L757.568 76.9536L757.228 74.2032C757.109 73.2528 756.226 72.4896 755.088 72.3888L751.844 72.1008L755.088 71.8128Z" fill="#E2C9AF"/>
<path d="M1023.65 12.6288C1024.77 12.528 1025.67 11.7792 1025.79 10.8144L1026.13 8.06403L1026.47 10.8144C1026.59 11.7648 1027.47 12.528 1028.61 12.6288L1031.85 12.9168L1028.61 13.2048C1027.49 13.3056 1026.59 14.0544 1026.47 15.0192L1026.13 17.7696L1025.79 15.0192C1025.67 14.0688 1024.79 13.3056 1023.65 13.2048L1020.41 12.9168L1023.65 12.6288Z" fill="#E2C9AF"/>
<path d="M788.429 10.0368C789.55 9.93605 790.45 9.18725 790.569 8.22245L790.909 5.47205L791.249 8.22245C791.367 9.17285 792.251 9.93605 793.389 10.0368L796.633 10.3248L793.389 10.6128C792.268 10.7136 791.367 11.4624 791.249 12.4272L790.909 15.1776L790.569 12.4272C790.45 11.4768 789.567 10.7136 788.429 10.6128L785.185 10.3248L788.429 10.0368Z" fill="#E2C9AF"/>
<path d="M1170.3 66.96C1171.42 66.8592 1172.32 66.1104 1172.44 65.1456L1172.78 62.3952L1173.12 65.1456C1173.23 66.096 1174.12 66.8592 1175.26 66.96L1178.5 67.248L1175.26 67.536C1174.13 67.6368 1173.23 68.3856 1173.12 69.3504L1172.78 72.1008L1172.44 69.3504C1172.32 68.4 1171.43 67.6368 1170.3 67.536L1167.05 67.248L1170.3 66.96Z" fill="#E2C9AF"/>
<path d="M115.836 66.96C116.957 66.8592 117.857 66.1104 117.976 65.1456L118.315 62.3952L118.655 65.1456C118.774 66.096 119.657 66.8592 120.795 66.96L124.039 67.248L120.795 67.536C119.674 67.6368 118.774 68.3856 118.655 69.3504L118.315 72.1008L117.976 69.3504C117.857 68.4 116.974 67.6368 115.836 67.536L112.591 67.248L115.836 66.96Z" fill="#E2C9AF"/>
<path opacity="0.34" d="M943.567 53.64C943.567 53.64 928.842 41.2848 897.148 46.8144C897.148 46.8144 884.121 40.0608 867.714 45.3888C867.714 45.3888 765.245 6.82562 688.814 63.072C688.814 63.072 667.294 55.2672 647.49 63.072C647.49 63.072 629.945 61.128 620.315 69.5808H1014.92C1014.92 69.5808 1001.89 51.048 943.584 53.6544L943.567 53.64Z" fill="url(#paint4_linear_37_140)"/>
<path opacity="0.34" d="M1280 96.408C1280 96.408 1253.2 84.0096 1225.8 96.408C1225.8 96.408 1209.97 95.0832 1200.24 102.6C1200.24 102.6 1130.23 83.1168 1055.34 102.6C1055.34 102.6 1023.07 96.408 999.328 118.094C999.328 118.094 984.415 114.437 972.543 122.083C972.543 122.083 950.021 120.758 932.357 130.939H1279.98V96.408H1280Z" fill="url(#paint5_linear_37_140)"/>
<defs>
<linearGradient id="paint0_linear_37_140" x1="969.537" y1="254.434" x2="969.537" y2="186.898" gradientUnits="userSpaceOnUse">
<stop stop-color="white" stop-opacity="0"/>
<stop offset="0.32" stop-color="white" stop-opacity="0.1225"/>
<stop offset="0.65" stop-color="white" stop-opacity="0.49"/>
<stop offset="0.89" stop-color="white" stop-opacity="0.8464"/>
<stop offset="1" stop-color="white"/>
</linearGradient>
<linearGradient id="paint1_linear_37_140" x1="462.391" y1="222.797" x2="462.391" y2="185.731" gradientUnits="userSpaceOnUse">
<stop stop-color="white" stop-opacity="0"/>
<stop offset="0.32" stop-color="white" stop-opacity="0.1225"/>
<stop offset="0.65" stop-color="white" stop-opacity="0.49"/>
<stop offset="0.89" stop-color="white" stop-opacity="0.8464"/>
<stop offset="1" stop-color="white"/>
</linearGradient>
<linearGradient id="paint2_linear_37_140" x1="173.804" y1="284.17" x2="173.804" y2="244.138" gradientUnits="userSpaceOnUse">
<stop stop-color="white" stop-opacity="0"/>
<stop offset="0.32" stop-color="white" stop-opacity="0.1225"/>
<stop offset="0.65" stop-color="white" stop-opacity="0.49"/>
<stop offset="0.89" stop-color="white" stop-opacity="0.8464"/>
<stop offset="1" stop-color="white"/>
</linearGradient>
<linearGradient id="paint3_linear_37_140" x1="310.463" y1="101.203" x2="310.463" y2="33.6816" gradientUnits="userSpaceOnUse">
<stop stop-color="white" stop-opacity="0"/>
<stop offset="0.32" stop-color="white" stop-opacity="0.1225"/>
<stop offset="0.65" stop-color="white" stop-opacity="0.49"/>
<stop offset="0.89" stop-color="white" stop-opacity="0.8464"/>
<stop offset="1" stop-color="white"/>
</linearGradient>
<linearGradient id="paint4_linear_37_140" x1="817.592" y1="69.5664" x2="817.592" y2="32.5008" gradientUnits="userSpaceOnUse">
<stop stop-color="white" stop-opacity="0"/>
<stop offset="0.32" stop-color="white" stop-opacity="0.1225"/>
<stop offset="0.65" stop-color="white" stop-opacity="0.49"/>
<stop offset="0.89" stop-color="white" stop-opacity="0.8464"/>
<stop offset="1" stop-color="white"/>
</linearGradient>
<linearGradient id="paint5_linear_37_140" x1="1106.2" y1="130.939" x2="1106.2" y2="90.9072" gradientUnits="userSpaceOnUse">
<stop stop-color="white" stop-opacity="0"/>
<stop offset="0.32" stop-color="white" stop-opacity="0.1225"/>
<stop offset="0.65" stop-color="white" stop-opacity="0.49"/>
<stop offset="0.89" stop-color="white" stop-opacity="0.8464"/>
<stop offset="1" stop-color="white"/>
</linearGradient>
</defs>
</svg>
