<svg width="1280" height="295" viewBox="0 0 1280 295" fill="none" xmlns="http://www.w3.org/2000/svg">
<g clip-path="url(#clip0_37_190)">
<path d="M1279.97 84.5613C1272.87 83.5439 1262.27 82.5266 1253.73 83.8792C1239.58 86.1335 1229.11 62.2954 1201.77 62.3532C1201.77 62.3532 1191.95 68.5035 1190.07 73.3821C1190.07 73.3821 1180.51 76.6191 1183.98 82.6653C1183.98 82.6653 1172.76 87.0353 1175.43 92.0526C1175.43 92.0526 1143.17 78.5613 1108.46 79.7867C1108.46 79.7867 1084.63 68.1105 1053.85 72.7232C1053.85 72.7232 1038.37 74.8966 1035.54 80.226C1035.54 80.226 1018.23 56.6192 978.329 56.0874C978.329 56.0874 948.02 44.2955 925.746 47.5556C925.746 47.5556 880.223 39.9024 851.969 50.1336C851.969 50.1336 829.781 65.6596 807.456 55.9024C807.456 55.9024 785.234 48.7117 763.526 51.8793C763.526 51.8793 749.939 35.4169 703.473 37.0816C703.473 37.0816 683.05 39.4747 676.111 46.018C676.111 46.018 655.499 34.3996 615.663 35.5788C615.663 35.5788 593.304 27.3938 573.583 33.1048C573.583 33.1048 544.439 30.862 527.22 42.203C527.22 42.203 499.601 40.2955 484.523 47.8562C484.523 47.8562 442.374 38.8042 422.551 41.9602C422.551 41.9602 386.176 20.8158 356.158 25.5903C356.158 25.5903 333.285 32.9545 330.475 43.151C330.475 43.151 300.44 33.3129 275.339 37.0238C275.339 37.0238 276.864 18.7233 250.153 15.5326C250.153 15.5326 225.909 21.9719 225.772 32.3071C225.772 32.3071 189.26 36.1105 162.412 29.4978C162.412 29.4978 151.909 9.67131 120.332 8.39964C120.332 8.39964 98.6238 -2.18993 73.2832 0.41122C73.2832 0.41122 59.1823 14.8736 64.6308 24.2262C64.6308 24.2262 49.3477 28.284 29.7126 17.0817C29.7126 17.0817 21.163 2.96613 -3.95485 1.81006C-3.95485 1.81006 -4.34892 1.96035 -5 2.2378V295H1280V84.5613H1279.97Z" fill="url(#paint0_linear_37_190)"/>
</g>
<defs>
<linearGradient id="paint0_linear_37_190" x1="635.23" y1="2.1222" x2="636.829" y2="296.964" gradientUnits="userSpaceOnUse">
<stop stop-color="#262647"/>
<stop offset="0.56" stop-color="#35305F"/>
<stop offset="1" stop-color="#3F376D"/>
</linearGradient>
<clipPath id="clip0_37_190">
<rect width="1285" height="295" fill="white" transform="translate(-5)"/>
</clipPath>
</defs>
</svg>
