<svg width="1274" height="516" viewBox="0 0 1274 516" fill="none" xmlns="http://www.w3.org/2000/svg">
<g clip-path="url(#clip0_37_202)">
<path d="M0 201.16C0 201.16 21.3013 189.099 33.5826 189.603C33.5826 189.603 48.2421 190.107 56.1579 189.603L64.0737 189.099C64.0737 189.099 83.0818 183.84 86.649 184.375C86.649 184.375 107.254 180.093 116.749 184.344C116.749 184.344 132.207 174.425 153.593 180.187C153.593 180.187 169.833 173.354 180.925 173.354C180.925 173.354 203.908 163.371 215 163.371C215 163.371 236.794 154.46 253.424 160.758C253.424 160.758 281.554 145.013 291.05 145.548C291.05 145.548 321.558 137.675 338.595 142.399C338.595 142.399 362.767 130.842 376.628 131.913C376.628 131.913 398.813 118.277 420.199 118.781C420.199 118.781 444.371 103.036 459.014 104.075C459.014 104.075 494.669 87.2908 516.853 88.8654C516.853 88.8654 543.386 75.7339 557.655 76.8046C557.655 76.8046 600.037 52.1477 634.112 55.8006C634.112 55.8006 659.066 54.5409 671.347 55.4227C671.347 55.4227 712.54 26.924 727.199 26.924C727.199 26.924 751.473 13.2887 769.19 12.281C769.853 12.2495 770.515 12.218 771.161 12.218C788.98 12.218 804.828 -4.56634 842.861 1.19638C880.895 6.95911 895.554 1.19638 909.025 6.45526C909.025 6.45526 961.717 9.06896 972.402 15.367C972.402 15.367 996.964 11.6827 1014.39 17.9807C1014.39 17.9807 1048.06 12.7218 1065.1 17.9807C1065.1 17.9807 1097.58 12.7218 1110.66 18.516C1110.66 18.516 1113.83 8.02978 1140.76 21.1297C1140.76 21.1297 1165.71 20.5944 1176.41 26.8925C1187.11 33.1905 1261.38 13.2572 1273.95 19.5552V516H0V201.16Z" fill="url(#paint0_linear_37_202)"/>
</g>
<defs>
<linearGradient id="paint0_linear_37_202" x1="672.842" y1="-47.2042" x2="535.741" y2="404.376" gradientUnits="userSpaceOnUse">
<stop stop-color="#2F2F61"/>
<stop offset="0.64" stop-color="#464B84"/>
<stop offset="1" stop-color="#505793"/>
</linearGradient>
<clipPath id="clip0_37_202">
<rect width="1274" height="516" fill="white"/>
</clipPath>
</defs>
</svg>
