<svg width="1274" height="437" viewBox="0 0 1274 437" fill="none" xmlns="http://www.w3.org/2000/svg">
<g clip-path="url(#clip0_37_196)">
<path d="M60.6432 5.3175C76.1013 1.63717 107 7.11251 107 7.11251C136.711 4.96753 141.467 8.99784 141.467 8.99784C156.925 5.83681 167.61 8.73818 167.61 8.73818C191.374 6.36741 212.183 7.94793 212.183 7.94793C241.893 4.7869 262.091 11.6283 262.091 11.6283C292.99 10.0477 309.62 16.8891 309.62 16.8891C342.303 16.8891 355.383 25.0513 355.383 25.0513C370.841 25.0513 382.715 31.1024 382.715 31.1024C398.75 31.3621 411.83 36.6342 411.83 36.6342C440.946 36.1036 456.998 45.8463 456.998 45.8463C491.465 45.5867 499.194 56.6389 499.194 56.6389C506.328 56.6389 534.849 66.9123 534.849 66.9123C544.956 68.4928 566.343 79.0258 566.343 79.0258C594.269 82.977 614.467 94.0293 614.467 94.0293C648.933 95.0792 660.23 105.353 660.23 105.353C671.526 105.353 686.372 110.354 686.372 110.354C710.137 112.984 735.091 120.627 735.091 120.627C755.883 120.096 784.998 127.468 784.998 127.468C799.267 127.468 810.547 131.42 810.547 131.42C838.473 131.16 862.832 138.532 862.832 138.532C874.723 138.272 893.137 142.743 893.137 142.743C904.433 142.743 914.523 147.484 914.523 147.484C928.198 147.484 966.214 160.388 966.214 160.388C973.349 160.388 995.925 165.389 995.925 165.389C1007.82 165.389 1019.09 170.131 1019.09 170.131C1045.24 169.6 1060.7 178.033 1060.7 178.033C1070.8 178.033 1079.11 183.565 1079.11 183.565C1086.24 183.565 1097.52 188.307 1097.52 188.307C1110.01 188.047 1122.48 198.05 1122.48 198.05C1131.99 198.58 1142.67 204.101 1142.67 204.101C1158.71 205.421 1167.63 211.732 1167.63 211.732C1172.98 210.682 1187.23 217.264 1187.23 217.264C1193.77 215.684 1208.62 220.165 1208.62 220.165C1216.94 219.635 1222.89 225.426 1222.89 225.426C1236.56 225.957 1241.89 237.009 1241.89 237.009C1249.03 237.009 1253.79 240.17 1253.79 240.17C1262.7 240.701 1273.95 247.61 1273.95 247.61V437.012H0V3.25155C31.7995 -5.12516 60.6432 5.3175 60.6432 5.3175Z" fill="url(#paint0_linear_37_196)"/>
</g>
<defs>
<linearGradient id="paint0_linear_37_196" x1="719.616" y1="-18.8756" x2="666.139" y2="331.381" gradientUnits="userSpaceOnUse">
<stop stop-color="#2F2F61"/>
<stop offset="0.43" stop-color="#3B3D73"/>
<stop offset="1" stop-color="#505793"/>
</linearGradient>
<clipPath id="clip0_37_196">
<rect width="1274" height="437" fill="white"/>
</clipPath>
</defs>
</svg>
