<svg width="1273" height="360" viewBox="0 0 1273 360" fill="none" xmlns="http://www.w3.org/2000/svg">
<g clip-path="url(#clip0_37_193)">
<path d="M1252.14 0.000140037C1252.14 0.000140037 1242.24 3.22735 1235.21 8.23383C1235.21 8.23383 1212.61 7.87798 1202.74 10.7371C1202.74 10.7371 1153.31 15.0318 1137.8 10.7371C1137.8 10.7371 1098.27 2.85923 1081.31 10.7371C1081.31 10.7371 1058.71 22.5538 1019.17 17.5473C1019.17 17.5473 997.99 12.1727 974 15.0441C974 15.0441 934.468 19.707 928.826 29.7322C928.826 29.7322 886.457 21.1304 856.825 25.4375C856.825 25.4375 797.527 32.2477 772.119 52.2982C772.119 52.2982 743.873 49.4268 712.822 49.4268C712.822 49.4268 687.414 50.1385 688.832 57.6605C688.832 57.6605 656.362 47.2672 632.341 55.1573C632.341 55.1573 611.156 65.1825 581.524 69.4895C581.524 69.4895 561.758 80.9504 495.4 71.9928C495.4 71.9928 469.991 61.5994 437.521 63.0351C437.521 63.0351 416.337 70.5571 427.622 78.7908C427.622 78.7908 407.857 74.8519 365.488 72.3486C365.488 72.3486 303.353 77.0115 297.711 89.1841C297.711 89.1841 269.465 81.3063 245.475 89.1841C245.475 89.1841 205.46 94.7305 170.185 94.9146C170.185 94.9146 160.286 99.9333 177.246 104.94C177.246 104.94 146.905 106.547 129.944 104.228C129.944 104.228 105.245 104.044 96.0554 109.063C96.0554 109.063 60.0387 106.02 40.9824 110.67C40.9824 110.67 0.0322876 116.757 0.0322876 127.15V359.988H1273.03V6.81042C1273.03 6.81042 1274.45 3.90225 1252.2 -0.0121307L1252.14 0.000140037Z" fill="url(#paint0_linear_37_193)"/>
</g>
<defs>
<linearGradient id="paint0_linear_37_193" x1="637.113" y1="13.6698" x2="637.052" y2="173.914" gradientUnits="userSpaceOnUse">
<stop stop-color="#2D2D56"/>
<stop offset="1" stop-color="#444173"/>
</linearGradient>
<clipPath id="clip0_37_193">
<rect width="1273" height="360" fill="white"/>
</clipPath>
</defs>
</svg>
