<svg width="1280" height="270" viewBox="0 0 1280 270" fill="none" xmlns="http://www.w3.org/2000/svg">
<g clip-path="url(#clip0_37_187)">
<path d="M1251.75 146.913C1237.25 147.121 1231.63 153.464 1231.63 153.464C1231.63 153.464 1213.54 158.347 1214.19 162.346C1214.19 162.346 1207.72 164.837 1208.83 170.259C1208.83 170.259 1207.76 176.418 1198.47 177.669C1189.2 178.921 1201.59 178.025 1200.25 183.325C1198.9 188.637 1200.3 196.918 1188.61 194.293C1176.92 191.667 1187.63 181.632 1172.72 178.369C1172.72 178.369 1175.84 172.934 1163.64 170.627C1163.64 170.627 1158.48 165.794 1141.74 164.395C1141.74 164.395 1136.04 167.413 1137.39 171.658C1137.39 171.658 1124.5 169.118 1124.61 175.191C1124.61 175.191 1109.77 166.419 1098.54 167.229C1098.54 167.229 1084.86 171.695 1084.5 176.344C1084.5 176.344 1073.81 178.847 1073.61 182.049C1073.61 182.049 1079.07 195.544 1061.44 197.114C1061.44 197.114 1045.96 188.244 1036.47 186.834C1036.47 186.834 1032.48 181.84 1014.76 183.129C1014.76 183.129 1004.8 187.901 992.355 186.772C992.355 186.772 987.678 179.583 976.568 176.921C976.568 176.921 968.376 172.014 942.605 170.689C942.605 170.689 936.955 166.174 919.598 168.591C919.598 168.591 910.246 165.732 895.329 170.173C895.329 170.173 889.168 162.113 872.818 163.867C856.468 165.634 850.938 169.216 850.938 169.216C850.938 169.216 841.278 182.65 825.389 182.061C809.5 181.472 801.956 174.786 790.47 174.749C790.47 174.749 781.886 166.689 771.68 166.849C771.68 166.849 768.556 151.158 746.643 148.692C746.643 148.692 748.878 140.423 735.31 137.638C735.31 137.638 745.124 131.577 730.429 127.063C730.429 127.063 733.586 121.726 717.407 117.677C717.407 117.677 716.758 109.237 692.353 107.139C692.353 107.139 682.164 100.355 667.299 100.465C667.299 100.465 656.427 92.7606 642.039 91.865C642.039 91.865 631.322 87.2399 624.29 87.9392C617.258 88.6385 610.5 95.3001 604.782 96.2938C599.048 97.2876 585.702 91.3007 576.963 91.3497C568.225 91.4111 563.737 86.1357 555.988 87.0804C548.24 88.025 535.918 92.3925 530.763 97.7783C530.763 97.7783 509.891 101.79 508.047 106.17C506.204 110.55 507.552 117.395 498.678 118.622C489.803 119.837 492.073 124.499 490.247 126.376C488.42 128.24 477.549 140.631 473.231 140.938C468.896 141.257 466.319 134.301 454.082 133.835C454.082 133.835 455.635 122.143 444.763 122.155C444.763 122.155 442.289 115.58 432.543 115.322C432.543 115.322 426.775 109.752 405.919 108.758C405.919 108.758 398.512 103.115 388.818 103.054C388.818 103.054 383.083 97.9746 369.515 98.9561C369.515 98.9561 356.903 94.3677 345.724 95.3247C345.724 95.3247 338.71 97.9991 335.228 101.287C335.228 101.287 325.329 92.8833 310.566 93.9506C310.566 93.9506 298.978 89.7181 293.841 90.675C293.841 90.675 280.819 86.7001 273.395 87.0927C273.395 87.0927 268.172 80.0875 254.57 81.94C254.57 81.94 243.715 79.106 237.008 79.8789C237.008 79.8789 224.908 75.9776 214.855 78.5907C204.803 81.2039 197.379 73.9165 191.627 72.886C185.876 71.8555 168.757 60.6423 152.885 61.0717C137.013 61.501 134.043 53.0237 122.199 51.8582C110.355 50.6927 83.2864 40.4855 78.2346 35.934C73.1828 31.3825 67.8068 25.8372 60.963 25.1747C54.1191 24.5122 56.2525 18.8566 44.903 16.3538C44.903 16.3538 34.0485 1.07984 14.1485 0.196522C8.41398 -0.0856483 3.90832 -0.0488435 0 0.2824V270H1280V135.049C1254.89 135.454 1251.75 146.913 1251.75 146.913Z" fill="#1E1E3A"/>
</g>
<defs>
<clipPath id="clip0_37_187">
<rect width="1280" height="270" fill="white"/>
</clipPath>
</defs>
</svg>
