<?xml version="1.0" encoding="UTF-8" standalone="no"?>
<svg
   xmlns:dc="http://purl.org/dc/elements/1.1/"
   xmlns:cc="http://creativecommons.org/ns#"
   xmlns:rdf="http://www.w3.org/1999/02/22-rdf-syntax-ns#"
   xmlns:svg="http://www.w3.org/2000/svg"
   xmlns="http://www.w3.org/2000/svg"
   xmlns:sodipodi="http://sodipodi.sourceforge.net/DTD/sodipodi-0.dtd"
   xmlns:inkscape="http://www.inkscape.org/namespaces/inkscape"
   viewBox="0 0 4309.0859 1590.7248"
   version="1.1"
   id="svg4"
   sodipodi:docname="tb-ce4.svg"
   width="4309.0859"
   height="1590.7249"
   inkscape:version="1.0.1 (3bc2e813f5, 2020-09-07)">
  <metadata
     id="metadata10">
    <rdf:RDF>
      <cc:Work
         rdf:about="">
        <dc:format>image/svg+xml</dc:format>
        <dc:type
           rdf:resource="http://purl.org/dc/dcmitype/StillImage" />
        <dc:title></dc:title>
      </cc:Work>
    </rdf:RDF>
  </metadata>
  <defs
     id="defs8" />
  <sodipodi:namedview
     pagecolor="#ffffff"
     bordercolor="#666666"
     borderopacity="1"
     objecttolerance="10"
     gridtolerance="10"
     guidetolerance="10"
     inkscape:pageopacity="0"
     inkscape:pageshadow="2"
     inkscape:window-width="1920"
     inkscape:window-height="1137"
     id="namedview6"
     showgrid="false"
     inkscape:zoom="0.16745449"
     inkscape:cx="1290.5204"
     inkscape:cy="649.09048"
     inkscape:window-x="-8"
     inkscape:window-y="-8"
     inkscape:window-maximized="1"
     inkscape:current-layer="svg4"
     inkscape:document-rotation="0" />
  <path
     fill="#00b8ff"
     d="m 1911.9976,1214.4777 c 0,5.7322 -6.7046,10.3181 -15.1581,10.3181 -9.6195,0.8601 -16.3238,-3.726 -16.3238,-10.3181 0,-5.7326 6.7043,-10.3185 15.1578,-10.3185 8.745,-0.8599 16.3241,3.726 16.3241,10.3185 z m -90.6564,-12.898 c -2.0404,5.7322 3.7894,12.3249 12.5344,14.0445 7.579,2.8663 16.324,0 18.073,-5.7325 1.7491,-5.7325 -3.7895,-12.3251 -12.5345,-14.9047 -7.5789,-2.0063 -16.0325,0.86 -18.0729,6.5927 z m 128.8426,-4.8728 c -8.4535,2.0064 -14.2834,7.4523 -13.4089,14.0445 0.8737,5.7325 8.4535,9.4585 17.1984,7.4526 8.4534,-2.0065 14.2836,-7.4526 13.4089,-13.1848 -0.8737,-5.4459 -8.745,-9.1722 -17.1984,-8.3123 z M 2141.9902,98.367225 c -404.3093,0 -713.5897,301.814095 -713.5897,699.360395 0,317.86498 203.4662,589.87028 494.0908,685.60248 37.3119,6.5924 50.4293,-16.0509 50.4293,-34.6814 0,-17.7705 -0.8736,-115.7958 -0.8736,-175.9863 0,0 -204.0494,42.993 -246.8999,-85.414 0,0 -33.2308,-83.4072 -81.0367,-104.9039 0,0 -66.7533,-45 4.6641,-44.14 0,0 72.5831,5.7324 112.5187,73.9486 63.838,110.6364 170.8183,78.8214 212.5028,59.9044 6.7043,-45.8599 25.6518,-77.6748 46.6397,-96.5921 -162.9479,-17.7705 -327.3534,-40.9872 -327.3534,-316.71858 0,-78.8213 22.1539,-118.3753 68.7938,-168.8212 -7.5789,-18.6303 -32.3564,-95.4452 7.579,-194.6168 60.9233,-18.6305 201.1341,77.3883 201.1341,77.3883 58.3,-16.0508 120.9723,-24.3632 183.0615,-24.3632 62.0893,0 124.7613,8.3124 183.0613,24.3632 0,0 140.2112,-96.3055 201.1345,-77.3883 39.9351,99.4584 15.1581,175.9865 7.5787,194.6168 46.6398,50.7325 75.2068,90.2867 75.2068,168.8212 0,276.59128 -171.6928,298.66128 -334.641,316.71858 26.8181,22.6431 49.5552,65.6367 49.5552,132.9933 0,96.5917 -0.8738,216.1134 -0.8738,239.6167 0,18.6303 13.4091,41.2736 50.4292,34.6813 291.499,-95.1588 489.1352,-367.1641 489.1352,-685.02908 0,-397.5463 -327.9362,-699.360395 -732.2453,-699.360395 z M 1711.7376,1086.9302 c -3.7894,2.8666 -2.915,9.4584 2.0405,14.9045 4.664,4.5859 11.3683,6.5924 15.158,2.8662 3.7895,-2.8662 2.9148,-9.4584 -2.0407,-14.9041 -4.6638,-4.5862 -11.3683,-6.5927 -15.1578,-2.8666 z m -31.4818,-23.2165 c -2.0406,3.7266 0.8738,8.312 6.7045,11.1784 4.6638,2.8663 10.494,2.0066 12.5345,-2.0064 2.0404,-3.7263 -0.8739,-8.3118 -6.7046,-11.1782 -5.8299,-1.72 -10.494,-0.86 -12.5344,2.0062 z m 94.4457,102.0378 c -4.6641,3.7264 -2.9151,12.3247 3.7893,17.7708 6.7044,6.5924 15.158,7.4522 18.9476,2.8662 3.7894,-3.726 2.0404,-12.3247 -3.7896,-17.7707 -6.4128,-6.5923 -15.158,-7.452 -18.9473,-2.8663 z m -33.2309,-42.1337 c -4.664,2.8662 -4.664,10.3188 0,16.911 4.6638,6.5926 12.5345,9.4587 16.324,6.5926 4.6638,-3.7263 4.6638,-11.1784 0,-17.7711 -4.0811,-6.5919 -11.6603,-9.4582 -16.324,-5.7325 z"
     id="path2"
     style="stroke-width:2.89051" />
  <rect
     style="fill:#ffffff;fill-opacity:0;stroke-width:6.47345"
     id="rect830"
     width="4309.0859"
     height="1590.7249"
     x="0"
     y="0" />
</svg>
