<svg width="614" height="192" viewBox="0 0 614 192" fill="none" xmlns="http://www.w3.org/2000/svg">
<g filter="url(#filter0_d_36_5296)">
<g filter="url(#filter1_b_36_5296)">
<path d="M101 84V90H98V93H95V96H92V99H89V102H86V117H89V129H83V126H77V123H71V120H65V123H59V126H53V129H47V117H50V102H47V99H44V96H41V93H38V90H35V84H56V78H59V72H62V66H65V63H71V66H74V72H77V78H80V84H101Z" fill="url(#paint0_linear_36_5296)" fill-opacity="0.5"/>
</g>
<g filter="url(#filter2_b_36_5296)">
<path d="M131.394 130V67.6H154.818C159.298 67.6 163.426 68.24 167.202 69.52C170.978 70.8 174.018 72.944 176.322 75.952C178.626 78.96 179.778 83.088 179.778 88.336C179.778 93.392 178.594 97.552 176.226 100.816C173.922 104.016 170.85 106.384 167.01 107.92C163.234 109.456 159.17 110.224 154.818 110.224H147.906V130H131.394ZM147.906 97.168H154.05C157.314 97.168 159.714 96.4 161.25 94.864C162.85 93.264 163.65 91.088 163.65 88.336C163.65 85.52 162.818 83.536 161.154 82.384C159.49 81.232 157.122 80.656 154.05 80.656H147.906V97.168ZM188.381 130V67.6H211.613C216.093 67.6 220.221 68.208 223.997 69.424C227.773 70.576 230.813 72.624 233.117 75.568C235.421 78.512 236.573 82.576 236.573 87.76C236.573 92.752 235.421 96.816 233.117 99.952C230.813 103.088 227.773 105.392 223.997 106.864C220.221 108.336 216.093 109.072 211.613 109.072H204.893V130H188.381ZM204.893 96.016H210.461C213.725 96.016 216.189 95.312 217.853 93.904C219.581 92.496 220.445 90.448 220.445 87.76C220.445 85.072 219.581 83.216 217.853 82.192C216.189 81.168 213.725 80.656 210.461 80.656H204.893V96.016ZM208.637 104.752L219.773 93.808L240.029 130H221.597L208.637 104.752ZM269.175 131.152C264.119 131.152 259.671 129.936 255.831 127.504C251.991 125.072 248.983 121.456 246.807 116.656C244.695 111.792 243.639 105.744 243.639 98.512C243.639 91.472 244.695 85.584 246.807 80.848C248.983 76.048 251.991 72.464 255.831 70.096C259.671 67.664 264.119 66.448 269.175 66.448C274.231 66.448 278.679 67.664 282.519 70.096C286.359 72.464 289.335 76.048 291.447 80.848C293.623 85.584 294.711 91.472 294.711 98.512C294.711 105.744 293.623 111.792 291.447 116.656C289.335 121.456 286.359 125.072 282.519 127.504C278.679 129.936 274.231 131.152 269.175 131.152ZM269.175 116.944C270.967 116.944 272.503 116.272 273.783 114.928C275.063 113.584 276.055 111.568 276.759 108.88C277.463 106.128 277.815 102.672 277.815 98.512C277.815 94.544 277.463 91.248 276.759 88.624C276.055 85.936 275.063 83.952 273.783 82.672C272.503 81.328 270.967 80.656 269.175 80.656C267.383 80.656 265.847 81.328 264.567 82.672C263.287 83.952 262.295 85.936 261.591 88.624C260.887 91.248 260.535 94.544 260.535 98.512C260.535 102.672 260.887 106.128 261.591 108.88C262.295 111.568 263.287 113.584 264.567 114.928C265.847 116.272 267.383 116.944 269.175 116.944ZM324.05 131.152C320.594 131.152 316.914 130.416 313.01 128.944C309.17 127.472 305.778 124.784 302.834 120.88L312.146 110.608C313.938 112.592 315.794 114.16 317.714 115.312C319.634 116.4 321.554 116.944 323.474 116.944C326.162 116.944 328.21 116.272 329.618 114.928C331.09 113.52 331.826 110.864 331.826 106.96V81.424H308.114V67.6H348.338V108.304C348.338 112.464 347.538 116.272 345.938 119.728C344.402 123.184 341.874 125.968 338.354 128.08C334.834 130.128 330.066 131.152 324.05 131.152ZM363.564 130V67.6H405.996V81.424H380.076V91.216H402.156V105.04H380.076V116.176H406.956V130H363.564ZM447.431 131.152C443.527 131.152 439.783 130.512 436.199 129.232C432.679 127.888 429.543 125.904 426.791 123.28C424.039 120.592 421.863 117.264 420.263 113.296C418.663 109.264 417.863 104.592 417.863 99.28C417.863 92.304 419.239 86.384 421.991 81.52C424.743 76.592 428.423 72.848 433.031 70.288C437.639 67.728 442.759 66.448 448.391 66.448C452.423 66.448 456.071 67.28 459.335 68.944C462.663 70.544 465.415 72.4 467.591 74.512L458.567 84.688C457.159 83.408 455.623 82.416 453.959 81.712C452.359 81.008 450.503 80.656 448.391 80.656C445.831 80.656 443.527 81.392 441.479 82.864C439.431 84.272 437.799 86.32 436.583 89.008C435.367 91.696 434.759 94.928 434.759 98.704C434.759 102.608 435.367 105.936 436.583 108.688C437.799 111.376 439.495 113.424 441.671 114.832C443.847 116.24 446.343 116.944 449.159 116.944C451.207 116.944 453.063 116.464 454.727 115.504C456.455 114.544 457.991 113.36 459.335 111.952L468.359 121.936C465.799 125.008 462.727 127.312 459.143 128.848C455.559 130.384 451.655 131.152 447.431 131.152ZM491.169 130V81.424H473.217V67.6H525.633V81.424H507.681V130H491.169ZM556.604 131.152C552.508 131.152 548.316 130.416 544.028 128.944C539.804 127.472 535.932 125.232 532.412 122.224L541.82 110.896C544.188 112.688 546.716 114.16 549.404 115.312C552.156 116.4 554.94 116.944 557.756 116.944C560.252 116.944 562.012 116.592 563.036 115.888C564.124 115.184 564.668 114.32 564.668 113.296C564.668 112.08 564.316 111.12 563.612 110.416C562.908 109.712 561.884 109.072 560.54 108.496C559.196 107.92 557.564 107.248 555.644 106.48L547.868 103.216C545.5 102.32 543.292 101.104 541.244 99.568C539.26 97.968 537.66 96.048 536.444 93.808C535.292 91.504 534.716 88.848 534.716 85.84C534.716 82.256 535.708 79.024 537.692 76.144C539.676 73.2 542.46 70.864 546.044 69.136C549.628 67.344 553.788 66.448 558.524 66.448C562.236 66.448 565.948 67.152 569.66 68.56C573.436 69.904 576.828 71.984 579.836 74.8L571.58 85.168C569.34 83.696 567.196 82.576 565.148 81.808C563.1 81.04 560.572 80.656 557.564 80.656C555.772 80.656 554.3 81.008 553.148 81.712C551.996 82.352 551.42 83.408 551.42 84.88C551.42 85.84 551.804 86.64 552.572 87.28C553.34 87.92 554.46 88.528 555.932 89.104C557.404 89.68 559.164 90.352 561.212 91.12L568.412 94.096C571.228 95.12 573.596 96.432 575.516 98.032C577.5 99.568 579.004 101.424 580.028 103.6C581.052 105.776 581.564 108.304 581.564 111.184C581.564 114.704 580.604 118 578.684 121.072C576.764 124.08 573.948 126.512 570.236 128.368C566.524 130.224 561.98 131.152 556.604 131.152Z" fill="url(#paint1_linear_36_5296)" fill-opacity="0.5"/>
</g>
</g>
<defs>
<filter id="filter0_d_36_5296" x="0.1" y="-31.9" width="617.8" height="255.8" filterUnits="userSpaceOnUse" color-interpolation-filters="sRGB">
<feFlood flood-opacity="0" result="BackgroundImageFix"/>
<feColorMatrix in="SourceAlpha" type="matrix" values="0 0 0 0 0 0 0 0 0 0 0 0 0 0 0 0 0 0 127 0" result="hardAlpha"/>
<feOffset/>
<feGaussianBlur stdDeviation="15.95"/>
<feComposite in2="hardAlpha" operator="out"/>
<feColorMatrix type="matrix" values="0 0 0 0 0 0 0 0 0 0.662745 0 0 0 0 0.917647 0 0 0 0.28 0"/>
<feBlend mode="normal" in2="BackgroundImageFix" result="effect1_dropShadow_36_5296"/>
<feBlend mode="normal" in="SourceGraphic" in2="effect1_dropShadow_36_5296" result="shape"/>
</filter>
<filter id="filter1_b_36_5296" x="27" y="55" width="82" height="82" filterUnits="userSpaceOnUse" color-interpolation-filters="sRGB">
<feFlood flood-opacity="0" result="BackgroundImageFix"/>
<feGaussianBlur in="BackgroundImageFix" stdDeviation="2.5"/>
<feComposite in2="SourceAlpha" operator="in" result="effect1_backgroundBlur_36_5296"/>
<feBlend mode="normal" in="SourceGraphic" in2="effect1_backgroundBlur_36_5296" result="shape"/>
</filter>
<filter id="filter2_b_36_5296" x="126.394" y="61.448" width="460.169" height="74.704" filterUnits="userSpaceOnUse" color-interpolation-filters="sRGB">
<feFlood flood-opacity="0" result="BackgroundImageFix"/>
<feGaussianBlur in="BackgroundImageFix" stdDeviation="2.5"/>
<feComposite in2="SourceAlpha" operator="in" result="effect1_backgroundBlur_36_5296"/>
<feBlend mode="normal" in="SourceGraphic" in2="effect1_backgroundBlur_36_5296" result="shape"/>
</filter>
<linearGradient id="paint0_linear_36_5296" x1="68" y1="63" x2="68" y2="129" gradientUnits="userSpaceOnUse">
<stop stop-color="white"/>
<stop offset="1" stop-color="#999999"/>
</linearGradient>
<linearGradient id="paint1_linear_36_5296" x1="355" y1="68.5" x2="355" y2="136.5" gradientUnits="userSpaceOnUse">
<stop stop-color="white"/>
<stop offset="1" stop-color="#4A4A4A"/>
</linearGradient>
</defs>
</svg>
