<svg width="31" height="28" viewBox="0 0 31 28" fill="none" xmlns="http://www.w3.org/2000/svg">
<g clip-path="url(#clip0_236_343)">
<mask id="mask0_236_343" style="mask-type:luminance" maskUnits="userSpaceOnUse" x="0" y="0" width="31" height="28">
<path d="M0.571411 0H30.5714V28H0.571411V0Z" fill="white"/>
</mask>
<g mask="url(#mask0_236_343)">
<mask id="mask1_236_343" style="mask-type:luminance" maskUnits="userSpaceOnUse" x="0" y="0" width="31" height="28">
<path d="M0.571411 0H30.5714V28H0.571411V0Z" fill="white"/>
</mask>
<g mask="url(#mask1_236_343)">
<path d="M22.2204 7.31656C21.8829 6.94326 21.2956 6.89656 20.8956 7.21156C20.4957 7.5265 20.4457 8.07474 20.7832 8.44804L25.8823 14.0938L20.7832 19.5529C20.4457 19.9145 20.4832 20.4744 20.8706 20.7894C21.0706 20.9294 21.2831 20.9994 21.508 20.9994C21.7705 20.9994 22.0329 20.8944 22.2204 20.6961L27.8445 14.6654C28.1445 14.3387 28.157 13.8605 27.857 13.5222L22.2204 7.31656ZM10.2473 7.21156C9.85991 6.89661 9.27251 6.94326 8.92253 7.30485L3.29843 13.3355C2.99849 13.6622 2.98601 14.1404 3.28595 14.4787L8.91005 20.696C9.09749 20.8944 9.37247 20.9993 9.63491 20.9993C9.84737 20.9993 10.0599 20.9293 10.2349 20.7893C10.6348 20.4744 10.6848 19.9262 10.3473 19.5529L5.24813 13.9071L10.3473 8.44804C10.6848 8.08639 10.6348 7.53815 10.2473 7.21156ZM17.6962 6.88491C17.1962 6.75667 16.6838 7.02491 16.5463 7.4915L12.7969 20.0311C12.6595 20.4977 12.9469 20.976 13.4468 21.1043C13.5343 21.1277 13.6093 21.1393 13.6968 21.1393C14.1092 21.1393 14.4842 20.8827 14.5967 20.4977L18.3461 7.95809C18.4835 7.50315 18.1961 7.01326 17.6962 6.88491Z" fill="white"/>
</g>
</g>
</g>
<defs>
<clipPath id="clip0_236_343">
<rect width="30" height="28" fill="white" transform="translate(0.571411)"/>
</clipPath>
</defs>
</svg>
