<svg width="57" height="57" viewBox="0 0 57 57" fill="none" xmlns="http://www.w3.org/2000/svg">
<path d="M54.625 16.625V21.375H52.25V23.75H49.875V33.25H47.5V40.375H45.125V45.125H42.75V49.875H14.25V45.125H11.875V40.375H9.5V33.25H7.125V23.75H4.75V21.375H2.375V16.625H4.75V14.25H9.5V16.625H11.875V21.375H9.5V23.75H11.875V26.125H14.25V28.5H19V26.125H21.375V21.375H23.75V16.625H26.125V14.25H23.75V9.5H26.125V7.125H30.875V9.5H33.25V14.25H30.875V16.625H33.25V21.375H35.625V26.125H38V28.5H42.75V26.125H45.125V23.75H47.5V21.375H45.125V16.625H47.5V14.25H52.25V16.625H54.625Z" fill="url(#paint0_linear_34_4714)"/>
<defs>
<linearGradient id="paint0_linear_34_4714" x1="28.5" y1="7.125" x2="28.5" y2="49.875" gradientUnits="userSpaceOnUse">
<stop stop-color="white"/>
<stop offset="1" stop-color="#4A4A4A"/>
</linearGradient>
</defs>
</svg>
