<svg width="28" height="28" viewBox="0 0 28 28" fill="none" xmlns="http://www.w3.org/2000/svg">
<g clip-path="url(#clip0_236_301)">
<mask id="mask0_236_301" style="mask-type:luminance" maskUnits="userSpaceOnUse" x="0" y="0" width="28" height="28">
<path d="M0.142822 0.5H27.1428V27.5H0.142822V0.5Z" fill="white"/>
</mask>
<g mask="url(#mask0_236_301)">
<mask id="mask1_236_301" style="mask-type:luminance" maskUnits="userSpaceOnUse" x="0" y="0" width="28" height="28">
<path d="M0.142822 0.5H27.1428V27.5H0.142822V0.5Z" fill="white"/>
</mask>
<g mask="url(#mask1_236_301)">
<path d="M7.77121 24.1235C6.95008 24.1235 6.17394 23.7973 5.58907 23.2124L4.41921 22.0425C3.84557 21.4689 3.51941 20.6928 3.51941 19.8604C3.51941 19.0393 3.84562 18.2632 4.41927 17.6782L10.5383 11.548C10.2121 9.48951 10.9095 7.32989 12.4168 5.83388C14.5202 3.73047 17.7709 3.26931 20.3355 4.70906C20.5605 4.83277 20.7179 5.06902 20.7629 5.32773C20.7967 5.58639 20.7067 5.85639 20.5267 6.03638L16.5898 9.97325L17.7034 11.0868L21.629 7.1612C21.8203 6.96993 22.0789 6.87996 22.3489 6.92495C22.6076 6.9587 22.8438 7.12745 22.9676 7.35241C24.3736 9.95073 23.9012 13.1002 21.7978 15.2149C20.3017 16.7109 18.1421 17.4083 16.0837 17.0933L9.96458 23.2236C9.37971 23.7972 8.60356 24.1235 7.77121 24.1235ZM17.1409 5.56393C15.8586 5.56393 14.5763 6.07007 13.609 7.0262C12.4054 8.22975 11.888 9.99571 12.2704 11.638C12.3379 11.9191 12.2479 12.2229 12.0455 12.4253L5.61153 18.8706C5.34159 19.1406 5.19535 19.4892 5.19535 19.8604C5.19535 20.2316 5.34159 20.5915 5.61153 20.8502L6.78133 22.0201C7.30999 22.5487 8.23237 22.5487 8.76103 22.0201L15.195 15.5748C15.3975 15.3723 15.7012 15.2824 15.9823 15.3499C17.6134 15.7323 19.3793 15.2261 20.5942 14.0113C21.8764 12.729 22.3489 10.9181 21.9102 9.24209L18.2995 12.8753C17.9733 13.2014 17.4334 13.2014 17.1072 12.8753L14.8126 10.5694C14.4864 10.2432 14.4864 9.70325 14.8126 9.37703L18.457 5.73263C18.0183 5.62016 17.5796 5.56393 17.141 5.56393" fill="white"/>
<path d="M8.02997 20.7378C7.41129 20.7378 6.90515 20.2316 6.90515 19.613C6.90515 18.9943 7.40006 18.4882 8.01869 18.4882H8.02997C8.6486 18.4882 9.15479 18.9943 9.15479 19.613C9.15479 20.2429 8.6486 20.7378 8.02997 20.7378Z" fill="white"/>
</g>
</g>
</g>
<defs>
<clipPath id="clip0_236_301">
<rect width="27" height="27" fill="white" transform="translate(0.142822 0.5)"/>
</clipPath>
</defs>
</svg>
