<svg width="26" height="26" viewBox="0 0 26 26" fill="none" xmlns="http://www.w3.org/2000/svg">
<g clip-path="url(#clip0_236_287)">
<mask id="mask0_236_287" style="mask-type:luminance" maskUnits="userSpaceOnUse" x="0" y="0" width="26" height="26">
<path d="M0 0H26V26H0V0Z" fill="white"/>
</mask>
<g mask="url(#mask0_236_287)">
<mask id="mask1_236_287" style="mask-type:luminance" maskUnits="userSpaceOnUse" x="0" y="0" width="26" height="26">
<path d="M0 0H26V26H0V0Z" fill="white"/>
</mask>
<g mask="url(#mask1_236_287)">
<path d="M20.8531 4.33478H18.1451V2.9808C18.1451 2.53672 17.7769 2.16846 17.3328 2.16846C16.8887 2.16846 16.5204 2.53672 16.5204 2.9808V4.33478H9.47985V2.9808C9.47985 2.53672 9.11159 2.16846 8.66751 2.16846C8.22343 2.16846 7.85511 2.53672 7.85511 2.9808V4.33478H5.14721C4.10742 4.33478 3.25171 5.19049 3.25171 6.23028V20.853C3.25171 21.8928 4.10742 22.7485 5.14721 22.7485H20.8531C21.8929 22.7485 22.7486 21.8928 22.7486 20.853V6.23028C22.7486 5.19049 21.8929 4.33478 20.8531 4.33478ZM5.14716 5.95952H20.8531C21.0048 5.95952 21.1239 6.07865 21.1239 6.23028V8.66742H4.87645V6.23028C4.87645 6.07865 4.99553 5.95952 5.14716 5.95952ZM20.853 21.1238H5.14721C4.99558 21.1238 4.87645 21.0046 4.87645 20.8529V10.2922H21.1238V20.8529C21.1238 21.0046 21.0047 21.1238 20.853 21.1238Z" fill="white"/>
<path d="M8.66751 13C8.0718 13 7.58435 13.4874 7.58435 14.0832C7.58435 14.6789 8.0718 15.1663 8.66751 15.1663H8.67833C9.27409 15.1663 9.76149 14.6789 9.76149 14.0832C9.75067 13.4874 9.26327 13 8.66751 13ZM13.0002 13C12.3936 13 11.917 13.4874 11.917 14.0832C11.917 14.6789 12.4044 15.1663 13.0002 15.1663C13.5959 15.1663 14.0833 14.6789 14.0833 14.0832C14.0833 13.4874 13.6067 13 13.0002 13ZM17.3328 13C16.7262 13 16.2496 13.4874 16.2496 14.0832C16.2496 14.6789 16.737 15.1663 17.3328 15.1663C17.9286 15.1663 18.416 14.6789 18.416 14.0832C18.416 13.4874 17.9285 13 17.3328 13ZM8.66751 16.7911C8.0718 16.7911 7.58435 17.2785 7.58435 17.8742C7.58435 18.47 8.0718 18.9574 8.66751 18.9574H8.67833C9.27409 18.9574 9.76149 18.4699 9.76149 17.8742C9.75067 17.2785 9.26327 16.7911 8.66751 16.7911ZM13.0002 16.7911C12.3936 16.7911 11.917 17.2785 11.917 17.8742C11.917 18.47 12.4044 18.9574 13.0002 18.9574C13.5959 18.9574 14.0833 18.4699 14.0833 17.8742C14.0833 17.2785 13.6067 16.7911 13.0002 16.7911Z" fill="white"/>
</g>
</g>
</g>
<defs>
<clipPath id="clip0_236_287">
<rect width="26" height="26" fill="white"/>
</clipPath>
</defs>
</svg>
