<svg width="32" height="32" viewBox="0 0 32 32" fill="none" xmlns="http://www.w3.org/2000/svg">
<g clip-path="url(#clip0_236_387)">
<mask id="mask0_236_387" style="mask-type:luminance" maskUnits="userSpaceOnUse" x="0" y="0" width="32" height="32">
<path d="M0 0H32V32H0V0Z" fill="white"/>
</mask>
<g mask="url(#mask0_236_387)">
<mask id="mask1_236_387" style="mask-type:luminance" maskUnits="userSpaceOnUse" x="0" y="0" width="32" height="32">
<path d="M0 0H32V32H0V0Z" fill="white"/>
</mask>
<g mask="url(#mask1_236_387)">
<path d="M26.5984 12.0007C26.5851 11.974 26.5851 11.934 26.5718 11.9074C26.5184 11.8007 26.4651 11.7074 26.3718 11.6141L17.7065 2.94883C17.6265 2.86883 17.5198 2.80214 17.4132 2.74883C17.3865 2.73552 17.3465 2.72221 17.3199 2.70883C17.2399 2.68221 17.1466 2.65552 17.0533 2.65552C17.0399 2.68221 17.0266 2.66883 16.9999 2.66883H7.66807C6.38833 2.66883 5.33514 3.72201 5.33514 5.00182V26.9983C5.33514 28.2781 6.38833 29.3312 7.66807 29.3312H24.3321C25.6119 29.3312 26.6651 28.2781 26.6651 26.9983V12.334C26.6651 12.3073 26.6518 12.294 26.6518 12.2673C26.6518 12.1873 26.6251 12.094 26.5984 12.0007M17.9998 6.08163L23.2523 11.3341H17.9998V6.08163ZM24.3321 27.3316H7.66807C7.48145 27.3316 7.33482 27.185 7.33482 26.9983V5.00182C7.33482 4.8152 7.48145 4.66851 7.66807 4.66851H16.0001V12.334C16.0001 12.8806 16.4534 13.3339 16.9999 13.3339H24.6654V26.9984C24.6654 27.185 24.5188 27.3316 24.3321 27.3316" fill="white"/>
<path d="M20.3328 17.3331H11.6673C11.1208 17.3331 10.6675 17.7864 10.6675 18.333C10.6675 18.8796 11.1208 19.3328 11.6673 19.3328H20.3328C20.8793 19.3328 21.3326 18.8796 21.3326 18.333C21.3326 17.7864 20.8794 17.3331 20.3328 17.3331ZM20.3328 21.3325H11.6673C11.1208 21.3325 10.6675 21.7858 10.6675 22.3324C10.6675 22.8789 11.1208 23.3322 11.6673 23.3322H20.3328C20.8793 23.3322 21.3326 22.8789 21.3326 22.3324C21.3326 21.7858 20.8794 21.3325 20.3328 21.3325Z" fill="white"/>
</g>
</g>
</g>
<defs>
<clipPath id="clip0_236_387">
<rect width="32" height="32" fill="white"/>
</clipPath>
</defs>
</svg>
