<svg width="29" height="28" viewBox="0 0 29 28" fill="none" xmlns="http://www.w3.org/2000/svg">
<g clip-path="url(#clip0_236_330)">
<mask id="mask0_236_330" style="mask-type:luminance" maskUnits="userSpaceOnUse" x="0" y="0" width="29" height="28">
<path d="M0.428467 0H28.4285V28H0.428467V0Z" fill="white"/>
</mask>
<g mask="url(#mask0_236_330)">
<mask id="mask1_236_330" style="mask-type:luminance" maskUnits="userSpaceOnUse" x="0" y="0" width="29" height="28">
<path d="M0.428467 0H28.4285V28H0.428467V0Z" fill="white"/>
</mask>
<g mask="url(#mask1_236_330)">
<path d="M21.3691 17.2082H24.0521C24.5303 17.2082 24.9269 16.8115 24.9269 16.3333C24.9269 15.8551 24.5303 15.4585 24.0521 15.4585H21.3691V13.4171H24.0521C24.5303 13.4171 24.9269 13.0205 24.9269 12.5423C24.9269 12.064 24.5303 11.6674 24.0521 11.6674H21.3691V11.3641C21.3691 10.2443 20.4593 9.32276 19.3278 9.32276H19.0362C19.0362 7.75969 18.2546 6.38321 17.0765 5.53168L18.7679 3.84031C19.1062 3.50207 19.1062 2.94207 18.7679 2.60383C18.4297 2.26559 17.8697 2.26559 17.5314 2.60383L15.3618 4.76184C15.0469 4.69184 14.7086 4.6452 14.3703 4.6452C14.032 4.6452 13.6937 4.69184 13.3788 4.76184L11.1975 2.59218C10.8592 2.25394 10.2992 2.25394 9.96099 2.59218C9.62275 2.93042 9.62275 3.49037 9.96099 3.82866L11.6641 5.53168C10.4859 6.38321 9.71605 7.75969 9.71605 9.32276H9.4244C8.30457 9.32276 7.38309 10.2326 7.38309 11.3641V11.6674H4.80513C4.32689 11.6674 3.9303 12.064 3.9303 12.5423C3.9303 13.0205 4.32689 13.4171 4.80513 13.4171H7.38309V15.4585H4.80513C4.32689 15.4585 3.9303 15.8551 3.9303 16.3333C3.9303 16.8115 4.32689 17.2082 4.80513 17.2082H7.38309V18.9579C7.38309 19.0628 7.39474 19.1561 7.39474 19.2495H4.80513C4.32689 19.2495 3.9303 19.6461 3.9303 20.1244C3.9303 20.6026 4.32689 20.9992 4.80513 20.9992H7.70968C8.57287 23.6938 11.1041 25.6535 14.0903 25.6535H14.3236C14.347 25.6535 14.3586 25.6651 14.382 25.6651C14.4053 25.6651 14.417 25.6535 14.4403 25.6535H14.6852C17.6598 25.6535 20.191 23.6938 21.0659 20.9992H24.0638C24.542 20.9992 24.9386 20.6026 24.9386 20.1244C24.9386 19.6461 24.542 19.2495 24.0638 19.2495H21.3691C21.3691 19.1445 21.3808 19.0513 21.3808 18.9579V17.2082H21.3691ZM14.3703 6.40656C15.98 6.40656 17.2865 7.71304 17.2865 9.32276H11.4541C11.4541 7.71299 12.7605 6.40656 14.3703 6.40656ZM19.6194 18.9462C19.6194 21.4775 17.6947 23.5538 15.2452 23.8454V16.0417C15.2452 15.5635 14.8486 15.1668 14.3703 15.1668C13.892 15.1668 13.4954 15.5634 13.4954 16.0417V23.8454C11.0458 23.5538 9.13281 21.4892 9.13281 18.9579V11.364C9.13281 11.2007 9.26105 11.0724 9.4244 11.0724H19.3395C19.5028 11.0724 19.6311 11.2007 19.6311 11.364V18.9461L19.6194 18.9462Z" fill="white"/>
</g>
</g>
</g>
<defs>
<clipPath id="clip0_236_330">
<rect width="28" height="28" fill="white" transform="translate(0.428467)"/>
</clipPath>
</defs>
</svg>
