<svg width="29" height="28" viewBox="0 0 29 28" fill="none" xmlns="http://www.w3.org/2000/svg">
<g clip-path="url(#clip0_236_356)">
<mask id="mask0_236_356" style="mask-type:luminance" maskUnits="userSpaceOnUse" x="0" y="0" width="29" height="28">
<path d="M28.7142 0H0.714233V28H28.7142V0Z" fill="white"/>
</mask>
<g mask="url(#mask0_236_356)">
<mask id="mask1_236_356" style="mask-type:luminance" maskUnits="userSpaceOnUse" x="0" y="0" width="29" height="28">
<path d="M28.7142 0H0.714233V28H28.7142V0Z" fill="white"/>
</mask>
<g mask="url(#mask1_236_356)">
<path d="M16.1363 15.7138C16.4785 15.3715 17.0335 15.3715 17.3757 15.7138L18.6518 16.9899L19.9279 15.7138C20.2702 15.3715 20.8251 15.3715 21.1673 15.7138C21.5095 16.056 21.5095 16.6109 21.1673 16.9532L19.8913 18.2293L21.1673 19.5055C21.5095 19.8477 21.5095 20.4026 21.1673 20.7449C21.086 20.8264 20.9894 20.891 20.8831 20.9351C20.7767 20.9791 20.6627 21.0017 20.5476 21.0016C20.4325 21.0017 20.3185 20.9791 20.2122 20.9351C20.1058 20.891 20.0092 20.8264 19.9279 20.7449L18.6518 19.4688L17.3757 20.7449C17.2944 20.8264 17.1978 20.891 17.0915 20.9351C16.9851 20.9791 16.8711 21.0017 16.756 21.0016C16.5317 21.0016 16.3074 20.916 16.1363 20.7449C15.7941 20.4026 15.7941 19.8477 16.1363 19.5055L17.4124 18.2293L16.1363 16.9532C15.7941 16.6109 15.7941 16.056 16.1363 15.7138ZM8.19493 8.74876H9.65188V7.29181C9.65188 6.8078 10.0442 6.41541 10.5283 6.41541C11.0123 6.41541 11.4047 6.8078 11.4047 7.29181V8.74876H12.8616C13.3457 8.74876 13.738 9.14115 13.738 9.62516C13.738 10.1092 13.3457 10.5016 12.8616 10.5016H11.4047V11.9585C11.4047 12.4425 11.0123 12.8349 10.5283 12.8349C10.0442 12.8349 9.65188 12.4425 9.65188 11.9585V10.5016H8.19493C7.71086 10.5016 7.31853 10.1092 7.31853 9.62516C7.31853 9.14115 7.71086 8.74876 8.19493 8.74876ZM8.48658 18.6655H12.5699C13.0539 18.6655 13.4463 19.0579 13.4463 19.5419C13.4463 20.0259 13.0539 20.4183 12.5699 20.4183H8.48658C8.00251 20.4183 7.61012 20.0259 7.61012 19.5419C7.61012 19.0579 8.00251 18.6655 8.48658 18.6655ZM8.48658 15.7488H12.5699C13.0539 15.7488 13.4463 16.1411 13.4463 16.6252C13.4463 17.1092 13.0539 17.5016 12.5699 17.5016H8.48658C8.00251 17.5016 7.61012 17.1092 7.61012 16.6252C7.61012 16.1411 8.00251 15.7488 8.48658 15.7488ZM16.81 10.5015C16.326 10.5015 15.9336 10.1091 15.9336 9.6251C15.9336 9.14109 16.326 8.7487 16.81 8.7487H20.8933C21.3774 8.7487 21.7698 9.14109 21.7698 9.6251C21.7698 10.1091 21.3774 10.5015 20.8933 10.5015H16.81Z" fill="white"/>
<path d="M6.25589 3.49866H23.1727C24.2992 3.49866 25.2157 4.41521 25.2157 5.54176V22.4585C25.2157 23.585 24.2992 24.5016 23.1727 24.5016H6.25589C5.12934 24.5016 4.21279 23.585 4.21279 22.4585V5.54176C4.21279 4.41521 5.12934 3.49866 6.25589 3.49866ZM5.96558 22.4585C5.96567 22.5354 5.99629 22.6092 6.05071 22.6636C6.10513 22.7181 6.17892 22.7487 6.25589 22.7488H23.1727C23.2496 22.7487 23.3234 22.718 23.3778 22.6636C23.4322 22.6092 23.4628 22.5354 23.4629 22.4585V5.54176C23.4628 5.4648 23.4322 5.39102 23.3778 5.3366C23.3234 5.28218 23.2496 5.25156 23.1727 5.25146H6.25589C6.17892 5.25155 6.10513 5.28216 6.05071 5.33658C5.99629 5.39101 5.96567 5.4648 5.96558 5.54176V22.4585Z" fill="white"/>
</g>
</g>
</g>
<defs>
<clipPath id="clip0_236_356">
<rect width="28" height="28" fill="white" transform="matrix(-1 0 0 1 28.7142 0)"/>
</clipPath>
</defs>
</svg>
