<svg width="31" height="30" viewBox="0 0 31 30" fill="none" xmlns="http://www.w3.org/2000/svg">
<g clip-path="url(#clip0_236_373)">
<mask id="mask0_236_373" style="mask-type:luminance" maskUnits="userSpaceOnUse" x="0" y="0" width="31" height="30">
<path d="M0.857178 0H30.8572V30H0.857178V0Z" fill="white"/>
</mask>
<g mask="url(#mask0_236_373)">
<mask id="mask1_236_373" style="mask-type:luminance" maskUnits="userSpaceOnUse" x="0" y="0" width="31" height="30">
<path d="M0.857178 0H30.8572V30H0.857178V0Z" fill="white"/>
</mask>
<g mask="url(#mask1_236_373)">
<path d="M26.1694 11.2485H20.8585V4.68729C20.8585 4.16871 20.4382 3.74829 19.9195 3.74829H5.54471C5.02607 3.74829 4.60571 4.16871 4.60571 4.68729V22.1875C4.60571 24.4283 6.42869 26.2513 8.66951 26.2513H23.0444C25.2853 26.2513 27.1084 24.4283 27.1084 22.1874V12.1875C27.1084 11.6689 26.688 11.2485 26.1694 11.2485ZM6.48371 22.1875V5.62629H18.9805V12.1852L18.9804 12.1875V22.1874C18.9804 22.9917 19.2163 23.7416 19.6211 24.3733H8.66951C7.46423 24.3733 6.48371 23.3927 6.48371 22.1875ZM25.2304 22.1874C25.2304 23.3927 24.2497 24.3733 23.0444 24.3733C21.839 24.3733 20.8584 23.3927 20.8584 22.1874V13.1265H25.2304V22.1874Z" fill="white"/>
<path d="M16.1695 7.49829H9.29447C8.77583 7.49829 8.35547 7.91871 8.35547 8.43729V12.8123C8.35547 13.3308 8.77583 13.7513 9.29447 13.7513H16.1695C16.6881 13.7513 17.1085 13.3308 17.1085 12.8123V8.43729C17.1085 7.91871 16.6881 7.49829 16.1695 7.49829ZM15.2304 11.8733H10.2335V9.37629H15.2304V11.8733ZM16.1695 15.6233H9.29447C8.77583 15.6233 8.35547 16.0437 8.35547 16.5623C8.35547 17.0809 8.77583 17.5013 9.29447 17.5013H16.1695C16.6881 17.5013 17.1085 17.0809 17.1085 16.5623C17.1085 16.0437 16.6881 15.6233 16.1695 15.6233ZM16.1695 19.4516H9.29447C8.77583 19.4516 8.35547 19.872 8.35547 20.3906C8.35547 20.9092 8.77583 21.3296 9.29447 21.3296H16.1695C16.6881 21.3296 17.1085 20.9092 17.1085 20.3906C17.1085 19.872 16.6881 19.4516 16.1695 19.4516Z" fill="white"/>
</g>
</g>
</g>
<defs>
<clipPath id="clip0_236_373">
<rect width="30" height="30" fill="white" transform="translate(0.857178)"/>
</clipPath>
</defs>
</svg>
