<svg width="6" height="9" viewBox="0 0 6 9" fill="none" xmlns="http://www.w3.org/2000/svg">
<path d="M-3.68815e-07 8.4375L-3.1964e-07 7.3125L0.6 7.3125L0.6 6.75L1.2 6.75L1.2 6.1875L1.8 6.1875L1.8 5.625L2.4 5.625L2.4 5.0625L3 5.0625L3 3.9375L2.4 3.9375L2.4 3.375L1.8 3.375L1.8 2.8125L1.2 2.8125L1.2 2.25L0.6 2.25L0.6 1.6875L-7.3763e-08 1.6875L-2.45877e-08 0.5625L0.6 0.5625L0.6 -2.36042e-07L1.8 -1.83588e-07L1.8 0.5625L2.4 0.5625L2.4 1.125L3 1.125L3 1.6875L3.6 1.6875L3.6 2.25L4.2 2.25L4.2 2.8125L4.8 2.8125L4.8 3.375L5.4 3.375L5.4 3.9375L6 3.9375L6 5.0625L5.4 5.0625L5.4 5.625L4.8 5.625L4.8 6.1875L4.2 6.1875L4.2 6.75L3.6 6.75L3.6 7.3125L3 7.3125L3 7.875L2.4 7.875L2.4 8.4375L1.8 8.4375L1.8 9L0.6 9L0.6 8.4375L-3.68815e-07 8.4375Z" fill="#00B8FF"/>
</svg>
