<svg width="72" height="72" viewBox="0 0 72 72" fill="none" xmlns="http://www.w3.org/2000/svg">
<g filter="url(#filter0_b_36_5292)">
<path d="M69 24V30H66V33H63V36H60V39H57V42H54V57H57V69H51V66H45V63H39V60H33V63H27V66H21V69H15V57H18V42H15V39H12V36H9V33H6V30H3V24H24V18H27V12H30V6H33V3H39V6H42V12H45V18H48V24H69Z" fill="url(#paint0_linear_36_5292)" fill-opacity="0.5"/>
</g>
<defs>
<filter id="filter0_b_36_5292" x="-5" y="-5" width="82" height="82" filterUnits="userSpaceOnUse" color-interpolation-filters="sRGB">
<feFlood flood-opacity="0" result="BackgroundImageFix"/>
<feGaussianBlur in="BackgroundImageFix" stdDeviation="2.5"/>
<feComposite in2="SourceAlpha" operator="in" result="effect1_backgroundBlur_36_5292"/>
<feBlend mode="normal" in="SourceGraphic" in2="effect1_backgroundBlur_36_5292" result="shape"/>
</filter>
<linearGradient id="paint0_linear_36_5292" x1="36" y1="3" x2="36" y2="69" gradientUnits="userSpaceOnUse">
<stop stop-color="white"/>
<stop offset="1" stop-color="#999999"/>
</linearGradient>
</defs>
</svg>
