<svg width="30" height="30" viewBox="0 0 30 30" fill="none" xmlns="http://www.w3.org/2000/svg">
<mask id="mask0_236_315" style="mask-type:luminance" maskUnits="userSpaceOnUse" x="0" y="0" width="30" height="30">
<path d="M29.2856 29.5L29.2856 0.500001L0.285644 0.500002L0.285645 29.5L29.2856 29.5Z" fill="white"/>
</mask>
<g mask="url(#mask0_236_315)">
<mask id="mask1_236_315" style="mask-type:luminance" maskUnits="userSpaceOnUse" x="0" y="0" width="30" height="30">
<path d="M29.2856 29.5L29.2856 0.500001L0.285644 0.500002L0.285645 29.5L29.2856 29.5Z" fill="white"/>
</mask>
<g mask="url(#mask1_236_315)">
<path d="M21.4815 3.09343C21.4691 3.0842 21.4568 3.07481 21.4439 3.06622C21.4313 3.05781 21.4182 3.05045 21.4052 3.04273C21.3927 3.03531 21.3804 3.02771 21.3676 3.02087C21.3543 3.01385 21.3408 3.00782 21.3273 3.0015C21.3139 2.99523 21.3006 2.98874 21.2868 2.98311C21.2736 2.97772 21.2602 2.97319 21.2467 2.96844C21.2321 2.96327 21.2177 2.95788 21.2029 2.95347C21.1894 2.94947 21.1758 2.9464 21.1623 2.94303C21.1471 2.93926 21.1321 2.93532 21.1167 2.9323C21.102 2.92946 21.0871 2.9276 21.0724 2.92552C21.0579 2.92343 21.0436 2.92105 21.0289 2.91966C21.011 2.91797 20.9931 2.91757 20.9752 2.91693C20.9645 2.91658 20.954 2.91531 20.9431 2.91531L14.2973 2.91531C13.796 2.91531 13.3896 3.32166 13.3896 3.82301C13.3896 4.32436 13.796 4.73077 14.2973 4.73077L18.7764 4.73077L10.3889 13.2543C10.0412 13.6076 10.0413 14.1746 10.3891 14.5278L13.9652 18.1599L6.70233 25.5406C6.35068 25.898 6.35544 26.4726 6.71266 26.8242C7.07 27.1758 7.64472 27.1713 7.99631 26.8139L15.8859 18.7963C16.2336 18.4431 16.2335 17.8761 15.8857 17.5229L12.3096 13.8908L20.0354 6.03954L20.0354 10.4689C20.0354 10.9702 20.4418 11.3766 20.9431 11.3766C21.4444 11.3766 21.8508 10.9702 21.8508 10.4689L21.8508 3.82301L21.8508 3.82179C21.8507 3.79213 21.8492 3.76257 21.8463 3.73311C21.8449 3.71838 21.8421 3.70399 21.8399 3.68949C21.8377 3.67459 21.8361 3.65974 21.8331 3.64495C21.8298 3.62842 21.8253 3.61235 21.8211 3.59617C21.8178 3.58353 21.8152 3.57082 21.8114 3.55835C21.8066 3.54264 21.8006 3.5275 21.795 3.51219C21.7904 3.49948 21.7863 3.48661 21.7811 3.47408C21.7753 3.46004 21.7684 3.44665 21.7618 3.43296C21.7555 3.41968 21.7496 3.40616 21.7426 3.39311C21.7356 3.38018 21.7276 3.36794 21.72 3.35541C21.7122 3.34242 21.705 3.32925 21.6965 3.31661C21.6832 3.29689 21.6687 3.2781 21.654 3.25954C21.6468 3.25049 21.6395 3.24156 21.6319 3.23274C21.6159 3.21418 21.5996 3.19597 21.5823 3.17874L21.5798 3.17602C21.5724 3.16871 21.5643 3.1625 21.5567 3.15549C21.5432 3.14302 21.5297 3.13043 21.5155 3.11883C21.5044 3.10984 21.4929 3.10184 21.4815 3.09343Z" fill="white"/>
</g>
</g>
</svg>
